%TF.GenerationSoftware,KiCad,Pcbnew,(6.0.1)*%
%TF.CreationDate,2022-07-23T18:56:36+02:00*%
%TF.ProjectId,amr_audio_card,616d725f-6175-4646-996f-5f636172642e,rev?*%
%TF.SameCoordinates,Original*%
%TF.FileFunction,Copper,L2,Bot*%
%TF.FilePolarity,Positive*%
%FSLAX46Y46*%
G04 Gerber Fmt 4.6, Leading zero omitted, Abs format (unit mm)*
G04 Created by KiCad (PCBNEW (6.0.1)) date 2022-07-23 18:56:36*
%MOMM*%
%LPD*%
G01*
G04 APERTURE LIST*
G04 Aperture macros list*
%AMOutline5P*
0 Free polygon, 5 corners , with rotation*
0 The origin of the aperture is its center*
0 number of corners: always 5*
0 $1 to $10 corner X, Y*
0 $11 Rotation angle, in degrees counterclockwise*
0 create outline with 5 corners*
4,1,5,$1,$2,$3,$4,$5,$6,$7,$8,$9,$10,$1,$2,$11*%
%AMOutline6P*
0 Free polygon, 6 corners , with rotation*
0 The origin of the aperture is its center*
0 number of corners: always 6*
0 $1 to $12 corner X, Y*
0 $13 Rotation angle, in degrees counterclockwise*
0 create outline with 6 corners*
4,1,6,$1,$2,$3,$4,$5,$6,$7,$8,$9,$10,$11,$12,$1,$2,$13*%
%AMOutline7P*
0 Free polygon, 7 corners , with rotation*
0 The origin of the aperture is its center*
0 number of corners: always 7*
0 $1 to $14 corner X, Y*
0 $15 Rotation angle, in degrees counterclockwise*
0 create outline with 7 corners*
4,1,7,$1,$2,$3,$4,$5,$6,$7,$8,$9,$10,$11,$12,$13,$14,$1,$2,$15*%
%AMOutline8P*
0 Free polygon, 8 corners , with rotation*
0 The origin of the aperture is its center*
0 number of corners: always 8*
0 $1 to $16 corner X, Y*
0 $17 Rotation angle, in degrees counterclockwise*
0 create outline with 8 corners*
4,1,8,$1,$2,$3,$4,$5,$6,$7,$8,$9,$10,$11,$12,$13,$14,$15,$16,$1,$2,$17*%
G04 Aperture macros list end*
%TA.AperFunction,ComponentPad*%
%ADD10R,3.500000X3.500000*%
%TD*%
%TA.AperFunction,ComponentPad*%
%ADD11C,4.000000*%
%TD*%
%TA.AperFunction,ConnectorPad*%
%ADD12Outline6P,-0.457200X3.175000X0.457200X3.175000X0.457200X-2.992120X0.274320X-3.175000X-0.274320X-3.175000X-0.457200X-2.992120X0.000000*%
%TD*%
%TA.AperFunction,ComponentPad*%
%ADD13R,1.500000X1.600000*%
%TD*%
%TA.AperFunction,ComponentPad*%
%ADD14C,1.600000*%
%TD*%
%TA.AperFunction,ComponentPad*%
%ADD15C,3.000000*%
%TD*%
%TA.AperFunction,Conductor*%
%ADD16C,0.900000*%
%TD*%
G04 APERTURE END LIST*
D10*
%TO.P,J1,1,In*%
%TO.N,Net-(J1-Pad1)*%
X104140000Y-111760000D03*
D11*
%TO.P,J1,2,Ext*%
%TO.N,GND*%
X109165000Y-116785000D03*
X109165000Y-106735000D03*
X99115000Y-106735000D03*
X99115000Y-116785000D03*
%TD*%
D12*
%TO.P,U1,A1,AUDIO_PWRDN*%
%TO.N,unconnected-(U1-PadA1)*%
X130250000Y-157895000D03*
%TO.P,U1,A2,MONO_PHONE*%
%TO.N,unconnected-(U1-PadA2)*%
X131520000Y-157895000D03*
%TO.P,U1,A3,RESERVED*%
%TO.N,unconnected-(U1-PadA3)*%
X132790000Y-157895000D03*
%TO.P,U1,A4,RESERVED*%
%TO.N,unconnected-(U1-PadA4)*%
X134060000Y-157895000D03*
%TO.P,U1,A5,RESERVED*%
%TO.N,unconnected-(U1-PadA5)*%
X135330000Y-157895000D03*
%TO.P,U1,A6,GND*%
%TO.N,GND*%
X136600000Y-157895000D03*
%TO.P,U1,A7,+5Vdual/+5VSB*%
%TO.N,Net-(J2-Pad1)*%
X137870000Y-157895000D03*
%TO.P,U1,A8,USB_OC#*%
%TO.N,unconnected-(U1-PadA8)*%
X139140000Y-157895000D03*
%TO.P,U1,A9,GND*%
%TO.N,GND*%
X140410000Y-157895000D03*
%TO.P,U1,A10,USB+*%
%TO.N,Net-(J2-Pad3)*%
X141680000Y-157895000D03*
%TO.P,U1,A11,USB-*%
%TO.N,Net-(J2-Pad2)*%
X142950000Y-157895000D03*
%TO.P,U1,A12,GND*%
%TO.N,GND*%
X146633000Y-157895000D03*
%TO.P,U1,A13,S/P-DIF_IN*%
%TO.N,Net-(J1-Pad1)*%
X147903000Y-157895000D03*
%TO.P,U1,A14,GND*%
%TO.N,GND*%
X149173000Y-157895000D03*
%TO.P,U1,A15,+3.3Vdual/+3.3VSB*%
%TO.N,unconnected-(U1-PadA15)*%
X150443000Y-157895000D03*
%TO.P,U1,A16,GND*%
%TO.N,GND*%
X151713000Y-157895000D03*
%TO.P,U1,A17,AC97_SYNC*%
%TO.N,unconnected-(U1-PadA17)*%
X152983000Y-157895000D03*
%TO.P,U1,A18,GND*%
%TO.N,GND*%
X154253000Y-157895000D03*
%TO.P,U1,A19,AC97_SDATA_IN1*%
%TO.N,unconnected-(U1-PadA19)*%
X155523000Y-157895000D03*
%TO.P,U1,A20,GND*%
%TO.N,GND*%
X156793000Y-157895000D03*
%TO.P,U1,A21,AC97_SDATA_IN0*%
%TO.N,unconnected-(U1-PadA21)*%
X158063000Y-157895000D03*
%TO.P,U1,A22,GND*%
%TO.N,GND*%
X159333000Y-157895000D03*
%TO.P,U1,A23,AC97_BITCLK*%
%TO.N,unconnected-(U1-PadA23)*%
X160603000Y-157895000D03*
%TD*%
D13*
%TO.P,J2,1,VBUS*%
%TO.N,Net-(J2-Pad1)*%
X106960000Y-131120000D03*
D14*
%TO.P,J2,2,D-*%
%TO.N,Net-(J2-Pad2)*%
X106960000Y-133620000D03*
%TO.P,J2,3,D+*%
%TO.N,Net-(J2-Pad3)*%
X106960000Y-135620000D03*
%TO.P,J2,4,GND*%
%TO.N,GND*%
X106960000Y-138120000D03*
D15*
%TO.P,J2,5,Shield*%
X104250000Y-141190000D03*
X104250000Y-128050000D03*
%TD*%
D16*
%TO.N,Net-(J1-Pad1)*%
X147903000Y-149173000D02*
X147903000Y-157895000D01*
X110490000Y-111760000D02*
X147903000Y-149173000D01*
X104140000Y-111760000D02*
X110490000Y-111760000D01*
%TO.N,GND*%
X99115000Y-128029000D02*
X99094000Y-128050000D01*
X99115000Y-116785000D02*
X99115000Y-128029000D01*
X149173000Y-146743000D02*
X109165000Y-106735000D01*
X149173000Y-157895000D02*
X149173000Y-146743000D01*
X110943000Y-116785000D02*
X109165000Y-116785000D01*
X146633000Y-152475000D02*
X110943000Y-116785000D01*
X146633000Y-157895000D02*
X146633000Y-152475000D01*
X109165000Y-116785000D02*
X99115000Y-116785000D01*
X109165000Y-106735000D02*
X99115000Y-106735000D01*
X99115000Y-116785000D02*
X99115000Y-106735000D01*
%TO.N,Net-(J2-Pad1)*%
X137870000Y-153364000D02*
X137870000Y-157895000D01*
X99314000Y-134366000D02*
X99314000Y-147066000D01*
X102560000Y-131120000D02*
X99314000Y-134366000D01*
X99314000Y-147066000D02*
X100838000Y-148590000D01*
X100838000Y-148590000D02*
X133096000Y-148590000D01*
X133096000Y-148590000D02*
X137870000Y-153364000D01*
X106960000Y-131120000D02*
X102560000Y-131120000D01*
%TO.N,GND*%
X125450956Y-138120000D02*
X106960000Y-138120000D01*
X140410000Y-153079044D02*
X125450956Y-138120000D01*
X140410000Y-157895000D02*
X140410000Y-153079044D01*
X136600000Y-154614240D02*
X136600000Y-157895000D01*
X134385760Y-152400000D02*
X136600000Y-154614240D01*
X96012000Y-152400000D02*
X134385760Y-152400000D01*
X95504000Y-151892000D02*
X96012000Y-152400000D01*
X95504000Y-130556000D02*
X95504000Y-151892000D01*
X98010000Y-128050000D02*
X95504000Y-130556000D01*
X104250000Y-128050000D02*
X98010000Y-128050000D01*
X106960000Y-138480000D02*
X104250000Y-141190000D01*
X106960000Y-138120000D02*
X106960000Y-138480000D01*
%TO.N,Net-(J2-Pad3)*%
X141680000Y-151840000D02*
X141680000Y-157895000D01*
X125460000Y-135620000D02*
X141680000Y-151840000D01*
X106960000Y-135620000D02*
X125460000Y-135620000D01*
%TO.N,Net-(J2-Pad2)*%
X142950000Y-151078000D02*
X142950000Y-157895000D01*
X125492000Y-133620000D02*
X142950000Y-151078000D01*
X106960000Y-133620000D02*
X125492000Y-133620000D01*
%TD*%
%TA.AperFunction,Conductor*%
%TO.N,GND*%
G36*
X116347721Y-99588002D02*
G01*
X116368947Y-99605157D01*
X160999347Y-144489139D01*
X161033196Y-144551548D01*
X161036000Y-144577982D01*
X161036000Y-153290000D01*
X161015998Y-153358121D01*
X160962342Y-153404614D01*
X160910000Y-153416000D01*
X148679500Y-153416000D01*
X148611379Y-153395998D01*
X148564886Y-153342342D01*
X148553500Y-153290000D01*
X148553500Y-149254000D01*
X148554049Y-149242360D01*
X148555760Y-149234704D01*
X148554720Y-149201598D01*
X148553562Y-149164770D01*
X148553500Y-149160812D01*
X148553500Y-149132075D01*
X148552961Y-149127804D01*
X148552028Y-149115966D01*
X148551999Y-149115023D01*
X148550597Y-149070431D01*
X148548385Y-149062817D01*
X148548384Y-149062812D01*
X148544722Y-149050208D01*
X148540711Y-149030843D01*
X148539064Y-149017807D01*
X148538071Y-149009942D01*
X148531244Y-148992698D01*
X148521298Y-148967580D01*
X148517459Y-148956369D01*
X148504744Y-148912602D01*
X148494018Y-148894464D01*
X148485323Y-148876716D01*
X148480487Y-148864501D01*
X148480486Y-148864500D01*
X148477568Y-148857129D01*
X148450782Y-148820262D01*
X148444275Y-148810354D01*
X148425117Y-148777958D01*
X148425113Y-148777953D01*
X148421081Y-148771135D01*
X148406188Y-148756242D01*
X148393347Y-148741208D01*
X148385623Y-148730577D01*
X148380963Y-148724163D01*
X148345856Y-148695120D01*
X148337077Y-148687131D01*
X111007248Y-111357302D01*
X110999407Y-111348685D01*
X110995202Y-111342060D01*
X110944183Y-111294150D01*
X110941342Y-111291396D01*
X110921035Y-111271089D01*
X110917904Y-111268660D01*
X110917898Y-111268655D01*
X110917623Y-111268442D01*
X110908610Y-111260745D01*
X110875393Y-111229552D01*
X110866071Y-111224427D01*
X110856934Y-111219404D01*
X110840410Y-111208550D01*
X110830027Y-111200496D01*
X110830026Y-111200495D01*
X110823764Y-111195638D01*
X110781952Y-111177545D01*
X110771307Y-111172330D01*
X110731368Y-111150373D01*
X110723689Y-111148402D01*
X110723688Y-111148401D01*
X110710959Y-111145133D01*
X110692250Y-111138727D01*
X110680200Y-111133512D01*
X110680195Y-111133510D01*
X110672926Y-111130365D01*
X110627930Y-111123238D01*
X110616310Y-111120831D01*
X110579860Y-111111472D01*
X110579855Y-111111471D01*
X110572177Y-111109500D01*
X110551116Y-111109500D01*
X110531404Y-111107949D01*
X110530098Y-111107742D01*
X110510595Y-111104653D01*
X110502704Y-111105399D01*
X110465235Y-111108941D01*
X110453377Y-111109500D01*
X106216500Y-111109500D01*
X106148379Y-111089498D01*
X106101886Y-111035842D01*
X106090500Y-110983500D01*
X106090500Y-109990252D01*
X106078867Y-109931769D01*
X106034552Y-109865448D01*
X105968231Y-109821133D01*
X105956062Y-109818712D01*
X105956061Y-109818712D01*
X105915816Y-109810707D01*
X105909748Y-109809500D01*
X102370252Y-109809500D01*
X102364184Y-109810707D01*
X102323939Y-109818712D01*
X102323938Y-109818712D01*
X102311769Y-109821133D01*
X102245448Y-109865448D01*
X102201133Y-109931769D01*
X102189500Y-109990252D01*
X102189500Y-113529748D01*
X102201133Y-113588231D01*
X102245448Y-113654552D01*
X102311769Y-113698867D01*
X102323938Y-113701288D01*
X102323939Y-113701288D01*
X102364184Y-113709293D01*
X102370252Y-113710500D01*
X105909748Y-113710500D01*
X105915816Y-113709293D01*
X105956061Y-113701288D01*
X105956062Y-113701288D01*
X105968231Y-113698867D01*
X106034552Y-113654552D01*
X106078867Y-113588231D01*
X106090500Y-113529748D01*
X106090500Y-112536500D01*
X106110502Y-112468379D01*
X106164158Y-112421886D01*
X106216500Y-112410500D01*
X110168364Y-112410500D01*
X110236485Y-112430502D01*
X110257459Y-112447405D01*
X147215595Y-149405541D01*
X147249621Y-149467853D01*
X147252500Y-149494636D01*
X147252500Y-153290000D01*
X147232498Y-153358121D01*
X147178842Y-153404614D01*
X147126500Y-153416000D01*
X145536326Y-153416000D01*
X145468205Y-153395998D01*
X145456393Y-153387399D01*
X145341010Y-153292707D01*
X145336220Y-153288776D01*
X145229396Y-153231677D01*
X145176120Y-153203200D01*
X145176117Y-153203199D01*
X145170662Y-153200283D01*
X144991021Y-153145789D01*
X144804200Y-153127389D01*
X144617379Y-153145789D01*
X144437738Y-153200283D01*
X144432283Y-153203199D01*
X144432280Y-153203200D01*
X144379004Y-153231677D01*
X144272180Y-153288776D01*
X144267390Y-153292707D01*
X144152007Y-153387399D01*
X144086660Y-153415153D01*
X144072074Y-153416000D01*
X143726500Y-153416000D01*
X143658379Y-153395998D01*
X143611886Y-153342342D01*
X143600500Y-153290000D01*
X143600500Y-151158999D01*
X143601049Y-151147359D01*
X143602760Y-151139703D01*
X143600562Y-151069768D01*
X143600500Y-151065811D01*
X143600500Y-151037075D01*
X143599961Y-151032807D01*
X143599028Y-151020964D01*
X143597846Y-150983355D01*
X143597597Y-150975430D01*
X143591722Y-150955208D01*
X143587711Y-150935842D01*
X143586065Y-150922806D01*
X143586064Y-150922801D01*
X143585071Y-150914942D01*
X143568297Y-150872574D01*
X143564458Y-150861361D01*
X143553955Y-150825211D01*
X143551744Y-150817601D01*
X143541019Y-150799466D01*
X143532320Y-150781709D01*
X143527486Y-150769498D01*
X143527485Y-150769496D01*
X143524568Y-150762129D01*
X143497788Y-150725269D01*
X143491272Y-150715349D01*
X143468081Y-150676135D01*
X143453188Y-150661242D01*
X143440347Y-150646208D01*
X143432623Y-150635577D01*
X143427963Y-150629163D01*
X143392856Y-150600120D01*
X143384077Y-150592131D01*
X126009248Y-133217302D01*
X126001407Y-133208685D01*
X125997202Y-133202060D01*
X125946183Y-133154150D01*
X125943342Y-133151396D01*
X125923035Y-133131089D01*
X125919904Y-133128660D01*
X125919898Y-133128655D01*
X125919623Y-133128442D01*
X125910610Y-133120745D01*
X125877393Y-133089552D01*
X125868071Y-133084427D01*
X125858934Y-133079404D01*
X125842410Y-133068550D01*
X125832027Y-133060496D01*
X125832026Y-133060495D01*
X125825764Y-133055638D01*
X125783952Y-133037545D01*
X125773307Y-133032330D01*
X125733368Y-133010373D01*
X125725689Y-133008402D01*
X125725688Y-133008401D01*
X125712959Y-133005133D01*
X125694250Y-132998727D01*
X125682200Y-132993512D01*
X125682195Y-132993510D01*
X125674926Y-132990365D01*
X125629930Y-132983238D01*
X125618310Y-132980831D01*
X125581860Y-132971472D01*
X125581855Y-132971471D01*
X125574177Y-132969500D01*
X125553116Y-132969500D01*
X125533404Y-132967949D01*
X125532098Y-132967742D01*
X125512595Y-132964653D01*
X125504704Y-132965399D01*
X125467235Y-132968941D01*
X125455377Y-132969500D01*
X107780410Y-132969500D01*
X107712289Y-132949498D01*
X107682767Y-132923135D01*
X107682710Y-132923065D01*
X107673361Y-132911602D01*
X107522180Y-132786535D01*
X107349585Y-132693213D01*
X107255869Y-132664203D01*
X107168039Y-132637015D01*
X107168036Y-132637014D01*
X107162152Y-132635193D01*
X107156027Y-132634549D01*
X107156026Y-132634549D01*
X106973147Y-132615327D01*
X106973146Y-132615327D01*
X106967019Y-132614683D01*
X106844383Y-132625844D01*
X106777759Y-132631907D01*
X106777758Y-132631907D01*
X106771618Y-132632466D01*
X106765704Y-132634207D01*
X106765702Y-132634207D01*
X106636734Y-132672165D01*
X106583393Y-132687864D01*
X106577928Y-132690721D01*
X106414972Y-132775912D01*
X106414968Y-132775915D01*
X106409512Y-132778767D01*
X106404712Y-132782627D01*
X106404711Y-132782627D01*
X106370326Y-132810273D01*
X106256600Y-132901711D01*
X106130480Y-133052016D01*
X106127516Y-133057408D01*
X106127513Y-133057412D01*
X106050976Y-133196632D01*
X106035956Y-133223954D01*
X105976628Y-133410978D01*
X105954757Y-133605963D01*
X105971175Y-133801483D01*
X106025258Y-133990091D01*
X106028076Y-133995574D01*
X106112123Y-134159113D01*
X106112126Y-134159117D01*
X106114944Y-134164601D01*
X106236818Y-134318369D01*
X106386238Y-134445535D01*
X106391616Y-134448541D01*
X106391618Y-134448542D01*
X106502140Y-134510310D01*
X106551846Y-134561003D01*
X106566254Y-134630522D01*
X106540791Y-134696795D01*
X106499047Y-134731959D01*
X106409512Y-134778767D01*
X106404712Y-134782627D01*
X106404711Y-134782627D01*
X106370326Y-134810273D01*
X106256600Y-134901711D01*
X106130480Y-135052016D01*
X106127516Y-135057408D01*
X106127513Y-135057412D01*
X106118049Y-135074627D01*
X106035956Y-135223954D01*
X105976628Y-135410978D01*
X105954757Y-135605963D01*
X105971175Y-135801483D01*
X106025258Y-135990091D01*
X106028076Y-135995574D01*
X106112123Y-136159113D01*
X106112126Y-136159117D01*
X106114944Y-136164601D01*
X106236818Y-136318369D01*
X106386238Y-136445535D01*
X106391616Y-136448541D01*
X106391618Y-136448542D01*
X106427932Y-136468837D01*
X106557513Y-136541257D01*
X106611997Y-136558960D01*
X106713707Y-136592008D01*
X106772313Y-136632082D01*
X106799950Y-136697478D01*
X106787843Y-136767435D01*
X106739837Y-136819741D01*
X106707382Y-136833548D01*
X106516239Y-136884764D01*
X106505947Y-136888510D01*
X106308489Y-136980586D01*
X106298994Y-136986069D01*
X106246952Y-137022509D01*
X106238576Y-137032988D01*
X106245644Y-137046434D01*
X106947188Y-137747978D01*
X106961132Y-137755592D01*
X106962965Y-137755461D01*
X106969580Y-137751210D01*
X107675077Y-137045713D01*
X107681507Y-137033938D01*
X107672211Y-137021923D01*
X107621006Y-136986069D01*
X107611511Y-136980586D01*
X107414053Y-136888510D01*
X107403761Y-136884764D01*
X107209238Y-136832642D01*
X107148615Y-136795690D01*
X107117594Y-136731830D01*
X107126022Y-136661335D01*
X107171225Y-136606588D01*
X107207965Y-136589577D01*
X107323556Y-136557303D01*
X107498689Y-136468837D01*
X107528515Y-136445535D01*
X107648447Y-136351834D01*
X107648448Y-136351833D01*
X107653303Y-136348040D01*
X107682539Y-136314169D01*
X107742190Y-136275672D01*
X107777920Y-136270500D01*
X125138364Y-136270500D01*
X125206485Y-136290502D01*
X125227459Y-136307405D01*
X140992595Y-152072541D01*
X141026621Y-152134853D01*
X141029500Y-152161636D01*
X141029500Y-153290000D01*
X141009498Y-153358121D01*
X140955842Y-153404614D01*
X140903500Y-153416000D01*
X138644558Y-153416000D01*
X138576437Y-153395998D01*
X138529944Y-153342342D01*
X138518620Y-153293957D01*
X138518366Y-153285856D01*
X138517598Y-153261431D01*
X138511719Y-153241193D01*
X138507711Y-153221839D01*
X138506065Y-153208808D01*
X138506065Y-153208806D01*
X138505071Y-153200942D01*
X138502152Y-153193569D01*
X138488301Y-153158584D01*
X138484456Y-153147354D01*
X138473956Y-153111212D01*
X138473956Y-153111211D01*
X138471745Y-153103602D01*
X138467712Y-153096783D01*
X138467710Y-153096778D01*
X138461020Y-153085467D01*
X138452320Y-153067708D01*
X138447488Y-153055504D01*
X138444568Y-153048129D01*
X138417791Y-153011273D01*
X138411275Y-153001353D01*
X138392119Y-152968963D01*
X138388081Y-152962135D01*
X138373188Y-152947242D01*
X138360347Y-152932208D01*
X138352623Y-152921577D01*
X138347963Y-152915163D01*
X138312856Y-152886120D01*
X138304077Y-152878131D01*
X133613248Y-148187302D01*
X133605407Y-148178685D01*
X133601202Y-148172060D01*
X133550183Y-148124150D01*
X133547342Y-148121396D01*
X133527035Y-148101089D01*
X133523904Y-148098660D01*
X133523898Y-148098655D01*
X133523623Y-148098442D01*
X133514610Y-148090745D01*
X133481393Y-148059552D01*
X133472071Y-148054427D01*
X133462934Y-148049404D01*
X133446410Y-148038550D01*
X133436027Y-148030496D01*
X133436026Y-148030495D01*
X133429764Y-148025638D01*
X133387952Y-148007545D01*
X133377307Y-148002330D01*
X133337368Y-147980373D01*
X133329689Y-147978402D01*
X133329688Y-147978401D01*
X133316959Y-147975133D01*
X133298250Y-147968727D01*
X133286200Y-147963512D01*
X133286195Y-147963510D01*
X133278926Y-147960365D01*
X133233930Y-147953238D01*
X133222310Y-147950831D01*
X133185860Y-147941472D01*
X133185855Y-147941471D01*
X133178177Y-147939500D01*
X133157116Y-147939500D01*
X133137404Y-147937949D01*
X133136098Y-147937742D01*
X133116595Y-147934653D01*
X133108704Y-147935399D01*
X133071235Y-147938941D01*
X133059377Y-147939500D01*
X101159636Y-147939500D01*
X101091515Y-147919498D01*
X101070541Y-147902595D01*
X100001405Y-146833459D01*
X99967379Y-146771147D01*
X99964500Y-146744364D01*
X99964500Y-142779654D01*
X103025618Y-142779654D01*
X103032673Y-142789627D01*
X103063679Y-142815551D01*
X103070598Y-142820579D01*
X103295272Y-142961515D01*
X103302807Y-142965556D01*
X103544520Y-143074694D01*
X103552551Y-143077680D01*
X103806832Y-143153002D01*
X103815184Y-143154869D01*
X104077340Y-143194984D01*
X104085874Y-143195700D01*
X104351045Y-143199867D01*
X104359596Y-143199418D01*
X104622883Y-143167557D01*
X104631284Y-143165955D01*
X104887824Y-143098653D01*
X104895926Y-143095926D01*
X105140949Y-142994434D01*
X105148617Y-142990628D01*
X105377598Y-142856822D01*
X105384679Y-142852009D01*
X105464655Y-142789301D01*
X105473125Y-142777442D01*
X105466608Y-142765818D01*
X104262812Y-141562022D01*
X104248868Y-141554408D01*
X104247035Y-141554539D01*
X104240420Y-141558790D01*
X103032910Y-142766300D01*
X103025618Y-142779654D01*
X99964500Y-142779654D01*
X99964500Y-141173204D01*
X102237665Y-141173204D01*
X102252932Y-141437969D01*
X102254005Y-141446470D01*
X102305065Y-141706722D01*
X102307276Y-141714974D01*
X102393184Y-141965894D01*
X102396499Y-141973779D01*
X102515664Y-142210713D01*
X102520020Y-142218079D01*
X102649347Y-142406250D01*
X102659601Y-142414594D01*
X102673342Y-142407448D01*
X103877978Y-141202812D01*
X103884356Y-141191132D01*
X104614408Y-141191132D01*
X104614539Y-141192965D01*
X104618790Y-141199580D01*
X105825730Y-142406520D01*
X105837939Y-142413187D01*
X105849439Y-142404497D01*
X105946831Y-142271913D01*
X105951418Y-142264685D01*
X106077962Y-142031621D01*
X106081530Y-142023827D01*
X106175271Y-141775750D01*
X106177748Y-141767544D01*
X106236954Y-141509038D01*
X106238294Y-141500577D01*
X106262031Y-141234616D01*
X106262277Y-141229677D01*
X106262666Y-141192485D01*
X106262523Y-141187519D01*
X106244362Y-140921123D01*
X106243201Y-140912649D01*
X106189419Y-140652944D01*
X106187120Y-140644709D01*
X106098588Y-140394705D01*
X106095191Y-140386854D01*
X105973550Y-140151178D01*
X105969122Y-140143866D01*
X105850031Y-139974417D01*
X105839509Y-139966037D01*
X105826121Y-139973089D01*
X104622022Y-141177188D01*
X104614408Y-141191132D01*
X103884356Y-141191132D01*
X103885592Y-141188868D01*
X103885461Y-141187035D01*
X103881210Y-141180420D01*
X102673814Y-139973024D01*
X102661804Y-139966466D01*
X102650064Y-139975434D01*
X102541935Y-140125911D01*
X102537418Y-140133196D01*
X102413325Y-140367567D01*
X102409839Y-140375395D01*
X102318700Y-140624446D01*
X102316311Y-140632670D01*
X102259812Y-140891795D01*
X102258563Y-140900250D01*
X102237754Y-141164653D01*
X102237665Y-141173204D01*
X99964500Y-141173204D01*
X99964500Y-139602500D01*
X103026584Y-139602500D01*
X103032980Y-139613770D01*
X104237188Y-140817978D01*
X104251132Y-140825592D01*
X104252965Y-140825461D01*
X104259580Y-140821210D01*
X105466604Y-139614186D01*
X105473795Y-139601017D01*
X105466473Y-139590780D01*
X105419233Y-139552115D01*
X105412261Y-139547160D01*
X105186122Y-139408582D01*
X105178552Y-139404624D01*
X104935704Y-139298022D01*
X104927644Y-139295120D01*
X104672592Y-139222467D01*
X104664214Y-139220685D01*
X104561466Y-139206062D01*
X106238493Y-139206062D01*
X106247789Y-139218077D01*
X106298994Y-139253931D01*
X106308489Y-139259414D01*
X106505947Y-139351490D01*
X106516239Y-139355236D01*
X106726688Y-139411625D01*
X106737481Y-139413528D01*
X106954525Y-139432517D01*
X106965475Y-139432517D01*
X107182519Y-139413528D01*
X107193312Y-139411625D01*
X107403761Y-139355236D01*
X107414053Y-139351490D01*
X107611511Y-139259414D01*
X107621006Y-139253931D01*
X107673048Y-139217491D01*
X107681424Y-139207012D01*
X107674356Y-139193566D01*
X106972812Y-138492022D01*
X106958868Y-138484408D01*
X106957035Y-138484539D01*
X106950420Y-138488790D01*
X106244923Y-139194287D01*
X106238493Y-139206062D01*
X104561466Y-139206062D01*
X104401656Y-139183318D01*
X104393111Y-139182691D01*
X104127908Y-139181302D01*
X104119374Y-139181839D01*
X103856433Y-139216456D01*
X103848035Y-139218149D01*
X103592238Y-139288127D01*
X103584143Y-139290946D01*
X103340199Y-139394997D01*
X103332577Y-139398881D01*
X103105013Y-139535075D01*
X103097981Y-139539962D01*
X103035053Y-139590377D01*
X103026584Y-139602500D01*
X99964500Y-139602500D01*
X99964500Y-138125475D01*
X105647483Y-138125475D01*
X105666472Y-138342519D01*
X105668375Y-138353312D01*
X105724764Y-138563761D01*
X105728510Y-138574053D01*
X105820586Y-138771511D01*
X105826069Y-138781006D01*
X105862509Y-138833048D01*
X105872988Y-138841424D01*
X105886434Y-138834356D01*
X106587978Y-138132812D01*
X106594356Y-138121132D01*
X107324408Y-138121132D01*
X107324539Y-138122965D01*
X107328790Y-138129580D01*
X108034287Y-138835077D01*
X108046062Y-138841507D01*
X108058077Y-138832211D01*
X108093931Y-138781006D01*
X108099414Y-138771511D01*
X108191490Y-138574053D01*
X108195236Y-138563761D01*
X108251625Y-138353312D01*
X108253528Y-138342519D01*
X108272517Y-138125475D01*
X108272517Y-138114525D01*
X108253528Y-137897481D01*
X108251625Y-137886688D01*
X108195236Y-137676239D01*
X108191490Y-137665947D01*
X108099414Y-137468489D01*
X108093931Y-137458994D01*
X108057491Y-137406952D01*
X108047012Y-137398576D01*
X108033566Y-137405644D01*
X107332022Y-138107188D01*
X107324408Y-138121132D01*
X106594356Y-138121132D01*
X106595592Y-138118868D01*
X106595461Y-138117035D01*
X106591210Y-138110420D01*
X105885713Y-137404923D01*
X105873938Y-137398493D01*
X105861923Y-137407789D01*
X105826069Y-137458994D01*
X105820586Y-137468489D01*
X105728510Y-137665947D01*
X105724764Y-137676239D01*
X105668375Y-137886688D01*
X105666472Y-137897481D01*
X105647483Y-138114525D01*
X105647483Y-138125475D01*
X99964500Y-138125475D01*
X99964500Y-134687636D01*
X99984502Y-134619515D01*
X100001405Y-134598541D01*
X102792541Y-131807405D01*
X102854853Y-131773379D01*
X102881636Y-131770500D01*
X105883500Y-131770500D01*
X105951621Y-131790502D01*
X105998114Y-131844158D01*
X106009500Y-131896500D01*
X106009500Y-131939748D01*
X106021133Y-131998231D01*
X106065448Y-132064552D01*
X106131769Y-132108867D01*
X106143938Y-132111288D01*
X106143939Y-132111288D01*
X106184184Y-132119293D01*
X106190252Y-132120500D01*
X107729748Y-132120500D01*
X107735816Y-132119293D01*
X107776061Y-132111288D01*
X107776062Y-132111288D01*
X107788231Y-132108867D01*
X107854552Y-132064552D01*
X107898867Y-131998231D01*
X107910500Y-131939748D01*
X107910500Y-130300252D01*
X107898867Y-130241769D01*
X107854552Y-130175448D01*
X107788231Y-130131133D01*
X107776062Y-130128712D01*
X107776061Y-130128712D01*
X107735816Y-130120707D01*
X107729748Y-130119500D01*
X106190252Y-130119500D01*
X106184184Y-130120707D01*
X106143939Y-130128712D01*
X106143938Y-130128712D01*
X106131769Y-130131133D01*
X106065448Y-130175448D01*
X106021133Y-130241769D01*
X106009500Y-130300252D01*
X106009500Y-130343500D01*
X105989498Y-130411621D01*
X105935842Y-130458114D01*
X105883500Y-130469500D01*
X102640999Y-130469500D01*
X102629359Y-130468951D01*
X102621703Y-130467240D01*
X102613780Y-130467489D01*
X102551769Y-130469438D01*
X102547811Y-130469500D01*
X102519075Y-130469500D01*
X102515140Y-130469997D01*
X102514807Y-130470039D01*
X102502972Y-130470971D01*
X102457430Y-130472403D01*
X102449813Y-130474616D01*
X102437208Y-130478278D01*
X102417844Y-130482289D01*
X102415665Y-130482564D01*
X102404806Y-130483935D01*
X102404801Y-130483936D01*
X102396942Y-130484929D01*
X102354574Y-130501703D01*
X102343361Y-130505542D01*
X102307211Y-130516045D01*
X102299601Y-130518256D01*
X102281466Y-130528981D01*
X102263712Y-130537678D01*
X102258083Y-130539907D01*
X102251498Y-130542514D01*
X102251496Y-130542515D01*
X102244129Y-130545432D01*
X102215633Y-130566135D01*
X102207269Y-130572212D01*
X102197352Y-130578726D01*
X102158135Y-130601919D01*
X102143242Y-130616812D01*
X102128208Y-130629653D01*
X102111163Y-130642037D01*
X102106110Y-130648145D01*
X102082121Y-130677143D01*
X102074131Y-130685923D01*
X98911302Y-133848752D01*
X98902685Y-133856593D01*
X98896060Y-133860798D01*
X98890633Y-133866577D01*
X98890632Y-133866578D01*
X98848151Y-133911816D01*
X98845396Y-133914658D01*
X98825089Y-133934965D01*
X98822660Y-133938096D01*
X98822655Y-133938102D01*
X98822442Y-133938377D01*
X98814745Y-133947390D01*
X98783552Y-133980607D01*
X98779733Y-133987554D01*
X98773404Y-133999066D01*
X98762550Y-134015590D01*
X98749638Y-134032236D01*
X98731546Y-134074045D01*
X98726330Y-134084693D01*
X98704373Y-134124632D01*
X98702402Y-134132311D01*
X98702401Y-134132312D01*
X98699133Y-134145041D01*
X98692727Y-134163750D01*
X98687512Y-134175800D01*
X98687510Y-134175805D01*
X98684365Y-134183074D01*
X98683126Y-134190898D01*
X98677239Y-134228065D01*
X98674831Y-134239690D01*
X98665472Y-134276140D01*
X98665471Y-134276145D01*
X98663500Y-134283823D01*
X98663500Y-134304884D01*
X98661949Y-134324596D01*
X98658653Y-134345405D01*
X98659399Y-134353296D01*
X98662941Y-134390765D01*
X98663500Y-134402623D01*
X98663500Y-146985000D01*
X98662951Y-146996640D01*
X98661240Y-147004296D01*
X98661489Y-147012219D01*
X98663438Y-147074230D01*
X98663500Y-147078188D01*
X98663500Y-147106925D01*
X98663995Y-147110842D01*
X98664039Y-147111191D01*
X98664971Y-147123024D01*
X98666403Y-147168569D01*
X98668615Y-147176183D01*
X98668616Y-147176188D01*
X98672278Y-147188792D01*
X98676289Y-147208156D01*
X98678929Y-147229058D01*
X98681848Y-147236429D01*
X98681848Y-147236431D01*
X98695702Y-147271420D01*
X98699541Y-147282631D01*
X98712256Y-147326398D01*
X98722981Y-147344533D01*
X98731676Y-147362281D01*
X98739432Y-147381871D01*
X98766218Y-147418738D01*
X98772725Y-147428646D01*
X98791883Y-147461042D01*
X98791887Y-147461047D01*
X98795919Y-147467865D01*
X98810812Y-147482758D01*
X98823653Y-147497792D01*
X98836037Y-147514837D01*
X98842145Y-147519890D01*
X98871143Y-147543879D01*
X98879923Y-147551869D01*
X100320752Y-148992698D01*
X100328593Y-149001315D01*
X100332798Y-149007940D01*
X100338577Y-149013367D01*
X100338578Y-149013368D01*
X100383816Y-149055849D01*
X100386658Y-149058604D01*
X100406965Y-149078911D01*
X100410096Y-149081340D01*
X100410102Y-149081345D01*
X100410377Y-149081558D01*
X100419390Y-149089255D01*
X100452607Y-149120448D01*
X100459554Y-149124267D01*
X100471066Y-149130596D01*
X100487590Y-149141450D01*
X100504236Y-149154362D01*
X100519141Y-149160812D01*
X100546041Y-149172453D01*
X100556700Y-149177675D01*
X100589686Y-149195809D01*
X100589690Y-149195810D01*
X100596632Y-149199627D01*
X100604305Y-149201597D01*
X100604307Y-149201598D01*
X100617036Y-149204866D01*
X100635740Y-149211270D01*
X100647795Y-149216487D01*
X100647805Y-149216490D01*
X100655073Y-149219635D01*
X100662896Y-149220874D01*
X100662906Y-149220877D01*
X100700067Y-149226763D01*
X100711688Y-149229169D01*
X100748142Y-149238528D01*
X100755823Y-149240500D01*
X100776889Y-149240500D01*
X100796601Y-149242051D01*
X100817404Y-149245346D01*
X100862758Y-149241059D01*
X100874613Y-149240500D01*
X132774364Y-149240500D01*
X132842485Y-149260502D01*
X132863459Y-149277405D01*
X136786959Y-153200905D01*
X136820985Y-153263217D01*
X136815920Y-153334032D01*
X136773373Y-153390868D01*
X136706853Y-153415679D01*
X136697864Y-153416000D01*
X93344000Y-153416000D01*
X93275879Y-153395998D01*
X93229386Y-153342342D01*
X93218000Y-153290000D01*
X93218000Y-129639654D01*
X103025618Y-129639654D01*
X103032673Y-129649627D01*
X103063679Y-129675551D01*
X103070598Y-129680579D01*
X103295272Y-129821515D01*
X103302807Y-129825556D01*
X103544520Y-129934694D01*
X103552551Y-129937680D01*
X103806832Y-130013002D01*
X103815184Y-130014869D01*
X104077340Y-130054984D01*
X104085874Y-130055700D01*
X104351045Y-130059867D01*
X104359596Y-130059418D01*
X104622883Y-130027557D01*
X104631284Y-130025955D01*
X104887824Y-129958653D01*
X104895926Y-129955926D01*
X105140949Y-129854434D01*
X105148617Y-129850628D01*
X105377598Y-129716822D01*
X105384679Y-129712009D01*
X105464655Y-129649301D01*
X105473125Y-129637442D01*
X105466608Y-129625818D01*
X104262812Y-128422022D01*
X104248868Y-128414408D01*
X104247035Y-128414539D01*
X104240420Y-128418790D01*
X103032910Y-129626300D01*
X103025618Y-129639654D01*
X93218000Y-129639654D01*
X93218000Y-128033204D01*
X102237665Y-128033204D01*
X102252932Y-128297969D01*
X102254005Y-128306470D01*
X102305065Y-128566722D01*
X102307276Y-128574974D01*
X102393184Y-128825894D01*
X102396499Y-128833779D01*
X102515664Y-129070713D01*
X102520020Y-129078079D01*
X102649347Y-129266250D01*
X102659601Y-129274594D01*
X102673342Y-129267448D01*
X103877978Y-128062812D01*
X103884356Y-128051132D01*
X104614408Y-128051132D01*
X104614539Y-128052965D01*
X104618790Y-128059580D01*
X105825730Y-129266520D01*
X105837939Y-129273187D01*
X105849439Y-129264497D01*
X105946831Y-129131913D01*
X105951418Y-129124685D01*
X106077962Y-128891621D01*
X106081530Y-128883827D01*
X106175271Y-128635750D01*
X106177748Y-128627544D01*
X106236954Y-128369038D01*
X106238294Y-128360577D01*
X106262031Y-128094616D01*
X106262277Y-128089677D01*
X106262666Y-128052485D01*
X106262523Y-128047519D01*
X106244362Y-127781123D01*
X106243201Y-127772649D01*
X106189419Y-127512944D01*
X106187120Y-127504709D01*
X106098588Y-127254705D01*
X106095191Y-127246854D01*
X105973550Y-127011178D01*
X105969122Y-127003866D01*
X105850031Y-126834417D01*
X105839509Y-126826037D01*
X105826121Y-126833089D01*
X104622022Y-128037188D01*
X104614408Y-128051132D01*
X103884356Y-128051132D01*
X103885592Y-128048868D01*
X103885461Y-128047035D01*
X103881210Y-128040420D01*
X102673814Y-126833024D01*
X102661804Y-126826466D01*
X102650064Y-126835434D01*
X102541935Y-126985911D01*
X102537418Y-126993196D01*
X102413325Y-127227567D01*
X102409839Y-127235395D01*
X102318700Y-127484446D01*
X102316311Y-127492670D01*
X102259812Y-127751795D01*
X102258563Y-127760250D01*
X102237754Y-128024653D01*
X102237665Y-128033204D01*
X93218000Y-128033204D01*
X93218000Y-126462500D01*
X103026584Y-126462500D01*
X103032980Y-126473770D01*
X104237188Y-127677978D01*
X104251132Y-127685592D01*
X104252965Y-127685461D01*
X104259580Y-127681210D01*
X105466604Y-126474186D01*
X105473795Y-126461017D01*
X105466473Y-126450780D01*
X105419233Y-126412115D01*
X105412261Y-126407160D01*
X105186122Y-126268582D01*
X105178552Y-126264624D01*
X104935704Y-126158022D01*
X104927644Y-126155120D01*
X104672592Y-126082467D01*
X104664214Y-126080685D01*
X104401656Y-126043318D01*
X104393111Y-126042691D01*
X104127908Y-126041302D01*
X104119374Y-126041839D01*
X103856433Y-126076456D01*
X103848035Y-126078149D01*
X103592238Y-126148127D01*
X103584143Y-126150946D01*
X103340199Y-126254997D01*
X103332577Y-126258881D01*
X103105013Y-126395075D01*
X103097981Y-126399962D01*
X103035053Y-126450377D01*
X103026584Y-126462500D01*
X93218000Y-126462500D01*
X93218000Y-118730987D01*
X97533721Y-118730987D01*
X97542548Y-118742605D01*
X97765281Y-118904430D01*
X97771961Y-118908670D01*
X98041572Y-119056890D01*
X98048707Y-119060247D01*
X98334770Y-119173508D01*
X98342296Y-119175953D01*
X98640279Y-119252462D01*
X98648050Y-119253945D01*
X98953278Y-119292503D01*
X98961169Y-119293000D01*
X99268831Y-119293000D01*
X99276722Y-119292503D01*
X99581950Y-119253945D01*
X99589721Y-119252462D01*
X99887704Y-119175953D01*
X99895230Y-119173508D01*
X100181293Y-119060247D01*
X100188428Y-119056890D01*
X100458039Y-118908670D01*
X100464719Y-118904430D01*
X100687823Y-118742336D01*
X100696246Y-118731413D01*
X100696017Y-118730987D01*
X107583721Y-118730987D01*
X107592548Y-118742605D01*
X107815281Y-118904430D01*
X107821961Y-118908670D01*
X108091572Y-119056890D01*
X108098707Y-119060247D01*
X108384770Y-119173508D01*
X108392296Y-119175953D01*
X108690279Y-119252462D01*
X108698050Y-119253945D01*
X109003278Y-119292503D01*
X109011169Y-119293000D01*
X109318831Y-119293000D01*
X109326722Y-119292503D01*
X109631950Y-119253945D01*
X109639721Y-119252462D01*
X109937704Y-119175953D01*
X109945230Y-119173508D01*
X110231293Y-119060247D01*
X110238428Y-119056890D01*
X110508039Y-118908670D01*
X110514719Y-118904430D01*
X110737823Y-118742336D01*
X110746246Y-118731413D01*
X110739342Y-118718552D01*
X109177812Y-117157022D01*
X109163868Y-117149408D01*
X109162035Y-117149539D01*
X109155420Y-117153790D01*
X107590334Y-118718876D01*
X107583721Y-118730987D01*
X100696017Y-118730987D01*
X100689342Y-118718552D01*
X99127812Y-117157022D01*
X99113868Y-117149408D01*
X99112035Y-117149539D01*
X99105420Y-117153790D01*
X97540334Y-118718876D01*
X97533721Y-118730987D01*
X93218000Y-118730987D01*
X93218000Y-116788958D01*
X96602290Y-116788958D01*
X96621607Y-117095994D01*
X96622600Y-117103855D01*
X96680246Y-117406046D01*
X96682217Y-117413723D01*
X96777284Y-117706309D01*
X96780199Y-117713672D01*
X96911189Y-117992041D01*
X96915001Y-117998974D01*
X97079851Y-118258736D01*
X97084495Y-118265129D01*
X97159497Y-118355790D01*
X97172014Y-118364245D01*
X97182752Y-118358038D01*
X98742978Y-116797812D01*
X98749356Y-116786132D01*
X99479408Y-116786132D01*
X99479539Y-116787965D01*
X99483790Y-116794580D01*
X101046145Y-118356935D01*
X101059407Y-118364177D01*
X101069512Y-118356988D01*
X101145505Y-118265129D01*
X101150149Y-118258736D01*
X101314999Y-117998974D01*
X101318811Y-117992041D01*
X101449801Y-117713672D01*
X101452716Y-117706309D01*
X101547783Y-117413723D01*
X101549754Y-117406046D01*
X101607400Y-117103855D01*
X101608393Y-117095994D01*
X101627710Y-116788958D01*
X106652290Y-116788958D01*
X106671607Y-117095994D01*
X106672600Y-117103855D01*
X106730246Y-117406046D01*
X106732217Y-117413723D01*
X106827284Y-117706309D01*
X106830199Y-117713672D01*
X106961189Y-117992041D01*
X106965001Y-117998974D01*
X107129851Y-118258736D01*
X107134495Y-118265129D01*
X107209497Y-118355790D01*
X107222014Y-118364245D01*
X107232752Y-118358038D01*
X108792978Y-116797812D01*
X108799356Y-116786132D01*
X109529408Y-116786132D01*
X109529539Y-116787965D01*
X109533790Y-116794580D01*
X111096145Y-118356935D01*
X111109407Y-118364177D01*
X111119512Y-118356988D01*
X111195505Y-118265129D01*
X111200149Y-118258736D01*
X111364999Y-117998974D01*
X111368811Y-117992041D01*
X111499801Y-117713672D01*
X111502716Y-117706309D01*
X111597783Y-117413723D01*
X111599754Y-117406046D01*
X111657400Y-117103855D01*
X111658393Y-117095994D01*
X111677710Y-116788958D01*
X111677710Y-116781042D01*
X111658393Y-116474006D01*
X111657400Y-116466145D01*
X111599754Y-116163954D01*
X111597783Y-116156277D01*
X111502716Y-115863691D01*
X111499801Y-115856328D01*
X111368811Y-115577959D01*
X111364999Y-115571026D01*
X111200149Y-115311264D01*
X111195505Y-115304871D01*
X111120503Y-115214210D01*
X111107986Y-115205755D01*
X111097248Y-115211962D01*
X109537022Y-116772188D01*
X109529408Y-116786132D01*
X108799356Y-116786132D01*
X108800592Y-116783868D01*
X108800461Y-116782035D01*
X108796210Y-116775420D01*
X107233855Y-115213065D01*
X107220593Y-115205823D01*
X107210488Y-115213012D01*
X107134495Y-115304871D01*
X107129851Y-115311264D01*
X106965001Y-115571026D01*
X106961189Y-115577959D01*
X106830199Y-115856328D01*
X106827284Y-115863691D01*
X106732217Y-116156277D01*
X106730246Y-116163954D01*
X106672600Y-116466145D01*
X106671607Y-116474006D01*
X106652290Y-116781042D01*
X106652290Y-116788958D01*
X101627710Y-116788958D01*
X101627710Y-116781042D01*
X101608393Y-116474006D01*
X101607400Y-116466145D01*
X101549754Y-116163954D01*
X101547783Y-116156277D01*
X101452716Y-115863691D01*
X101449801Y-115856328D01*
X101318811Y-115577959D01*
X101314999Y-115571026D01*
X101150149Y-115311264D01*
X101145505Y-115304871D01*
X101070503Y-115214210D01*
X101057986Y-115205755D01*
X101047248Y-115211962D01*
X99487022Y-116772188D01*
X99479408Y-116786132D01*
X98749356Y-116786132D01*
X98750592Y-116783868D01*
X98750461Y-116782035D01*
X98746210Y-116775420D01*
X97183855Y-115213065D01*
X97170593Y-115205823D01*
X97160488Y-115213012D01*
X97084495Y-115304871D01*
X97079851Y-115311264D01*
X96915001Y-115571026D01*
X96911189Y-115577959D01*
X96780199Y-115856328D01*
X96777284Y-115863691D01*
X96682217Y-116156277D01*
X96680246Y-116163954D01*
X96622600Y-116466145D01*
X96621607Y-116474006D01*
X96602290Y-116781042D01*
X96602290Y-116788958D01*
X93218000Y-116788958D01*
X93218000Y-114838587D01*
X97533754Y-114838587D01*
X97540658Y-114851448D01*
X99102188Y-116412978D01*
X99116132Y-116420592D01*
X99117965Y-116420461D01*
X99124580Y-116416210D01*
X100689666Y-114851124D01*
X100696279Y-114839013D01*
X100695955Y-114838587D01*
X107583754Y-114838587D01*
X107590658Y-114851448D01*
X109152188Y-116412978D01*
X109166132Y-116420592D01*
X109167965Y-116420461D01*
X109174580Y-116416210D01*
X110739666Y-114851124D01*
X110746279Y-114839013D01*
X110737452Y-114827395D01*
X110514719Y-114665570D01*
X110508039Y-114661330D01*
X110238428Y-114513110D01*
X110231293Y-114509753D01*
X109945230Y-114396492D01*
X109937704Y-114394047D01*
X109639721Y-114317538D01*
X109631950Y-114316055D01*
X109326722Y-114277497D01*
X109318831Y-114277000D01*
X109011169Y-114277000D01*
X109003278Y-114277497D01*
X108698050Y-114316055D01*
X108690279Y-114317538D01*
X108392296Y-114394047D01*
X108384770Y-114396492D01*
X108098707Y-114509753D01*
X108091572Y-114513110D01*
X107821961Y-114661330D01*
X107815281Y-114665570D01*
X107592177Y-114827664D01*
X107583754Y-114838587D01*
X100695955Y-114838587D01*
X100687452Y-114827395D01*
X100464719Y-114665570D01*
X100458039Y-114661330D01*
X100188428Y-114513110D01*
X100181293Y-114509753D01*
X99895230Y-114396492D01*
X99887704Y-114394047D01*
X99589721Y-114317538D01*
X99581950Y-114316055D01*
X99276722Y-114277497D01*
X99268831Y-114277000D01*
X98961169Y-114277000D01*
X98953278Y-114277497D01*
X98648050Y-114316055D01*
X98640279Y-114317538D01*
X98342296Y-114394047D01*
X98334770Y-114396492D01*
X98048707Y-114509753D01*
X98041572Y-114513110D01*
X97771961Y-114661330D01*
X97765281Y-114665570D01*
X97542177Y-114827664D01*
X97533754Y-114838587D01*
X93218000Y-114838587D01*
X93218000Y-108680987D01*
X97533721Y-108680987D01*
X97542548Y-108692605D01*
X97765281Y-108854430D01*
X97771961Y-108858670D01*
X98041572Y-109006890D01*
X98048707Y-109010247D01*
X98334770Y-109123508D01*
X98342296Y-109125953D01*
X98640279Y-109202462D01*
X98648050Y-109203945D01*
X98953278Y-109242503D01*
X98961169Y-109243000D01*
X99268831Y-109243000D01*
X99276722Y-109242503D01*
X99581950Y-109203945D01*
X99589721Y-109202462D01*
X99887704Y-109125953D01*
X99895230Y-109123508D01*
X100181293Y-109010247D01*
X100188428Y-109006890D01*
X100458039Y-108858670D01*
X100464719Y-108854430D01*
X100687823Y-108692336D01*
X100696246Y-108681413D01*
X100696017Y-108680987D01*
X107583721Y-108680987D01*
X107592548Y-108692605D01*
X107815281Y-108854430D01*
X107821961Y-108858670D01*
X108091572Y-109006890D01*
X108098707Y-109010247D01*
X108384770Y-109123508D01*
X108392296Y-109125953D01*
X108690279Y-109202462D01*
X108698050Y-109203945D01*
X109003278Y-109242503D01*
X109011169Y-109243000D01*
X109318831Y-109243000D01*
X109326722Y-109242503D01*
X109631950Y-109203945D01*
X109639721Y-109202462D01*
X109937704Y-109125953D01*
X109945230Y-109123508D01*
X110231293Y-109010247D01*
X110238428Y-109006890D01*
X110508039Y-108858670D01*
X110514719Y-108854430D01*
X110737823Y-108692336D01*
X110746246Y-108681413D01*
X110739342Y-108668552D01*
X109177812Y-107107022D01*
X109163868Y-107099408D01*
X109162035Y-107099539D01*
X109155420Y-107103790D01*
X107590334Y-108668876D01*
X107583721Y-108680987D01*
X100696017Y-108680987D01*
X100689342Y-108668552D01*
X99127812Y-107107022D01*
X99113868Y-107099408D01*
X99112035Y-107099539D01*
X99105420Y-107103790D01*
X97540334Y-108668876D01*
X97533721Y-108680987D01*
X93218000Y-108680987D01*
X93218000Y-106738958D01*
X96602290Y-106738958D01*
X96621607Y-107045994D01*
X96622600Y-107053855D01*
X96680246Y-107356046D01*
X96682217Y-107363723D01*
X96777284Y-107656309D01*
X96780199Y-107663672D01*
X96911189Y-107942041D01*
X96915001Y-107948974D01*
X97079851Y-108208736D01*
X97084495Y-108215129D01*
X97159497Y-108305790D01*
X97172014Y-108314245D01*
X97182752Y-108308038D01*
X98742978Y-106747812D01*
X98749356Y-106736132D01*
X99479408Y-106736132D01*
X99479539Y-106737965D01*
X99483790Y-106744580D01*
X101046145Y-108306935D01*
X101059407Y-108314177D01*
X101069512Y-108306988D01*
X101145505Y-108215129D01*
X101150149Y-108208736D01*
X101314999Y-107948974D01*
X101318811Y-107942041D01*
X101449801Y-107663672D01*
X101452716Y-107656309D01*
X101547783Y-107363723D01*
X101549754Y-107356046D01*
X101607400Y-107053855D01*
X101608393Y-107045994D01*
X101627710Y-106738958D01*
X106652290Y-106738958D01*
X106671607Y-107045994D01*
X106672600Y-107053855D01*
X106730246Y-107356046D01*
X106732217Y-107363723D01*
X106827284Y-107656309D01*
X106830199Y-107663672D01*
X106961189Y-107942041D01*
X106965001Y-107948974D01*
X107129851Y-108208736D01*
X107134495Y-108215129D01*
X107209497Y-108305790D01*
X107222014Y-108314245D01*
X107232752Y-108308038D01*
X108792978Y-106747812D01*
X108799356Y-106736132D01*
X109529408Y-106736132D01*
X109529539Y-106737965D01*
X109533790Y-106744580D01*
X111096145Y-108306935D01*
X111109407Y-108314177D01*
X111119512Y-108306988D01*
X111195505Y-108215129D01*
X111200149Y-108208736D01*
X111364999Y-107948974D01*
X111368811Y-107942041D01*
X111499801Y-107663672D01*
X111502716Y-107656309D01*
X111597783Y-107363723D01*
X111599754Y-107356046D01*
X111657400Y-107053855D01*
X111658393Y-107045994D01*
X111677710Y-106738958D01*
X111677710Y-106731042D01*
X111658393Y-106424006D01*
X111657400Y-106416145D01*
X111599754Y-106113954D01*
X111597783Y-106106277D01*
X111502716Y-105813691D01*
X111499801Y-105806328D01*
X111368811Y-105527959D01*
X111364999Y-105521026D01*
X111200149Y-105261264D01*
X111195505Y-105254871D01*
X111120503Y-105164210D01*
X111107986Y-105155755D01*
X111097248Y-105161962D01*
X109537022Y-106722188D01*
X109529408Y-106736132D01*
X108799356Y-106736132D01*
X108800592Y-106733868D01*
X108800461Y-106732035D01*
X108796210Y-106725420D01*
X107233855Y-105163065D01*
X107220593Y-105155823D01*
X107210488Y-105163012D01*
X107134495Y-105254871D01*
X107129851Y-105261264D01*
X106965001Y-105521026D01*
X106961189Y-105527959D01*
X106830199Y-105806328D01*
X106827284Y-105813691D01*
X106732217Y-106106277D01*
X106730246Y-106113954D01*
X106672600Y-106416145D01*
X106671607Y-106424006D01*
X106652290Y-106731042D01*
X106652290Y-106738958D01*
X101627710Y-106738958D01*
X101627710Y-106731042D01*
X101608393Y-106424006D01*
X101607400Y-106416145D01*
X101549754Y-106113954D01*
X101547783Y-106106277D01*
X101452716Y-105813691D01*
X101449801Y-105806328D01*
X101318811Y-105527959D01*
X101314999Y-105521026D01*
X101150149Y-105261264D01*
X101145505Y-105254871D01*
X101070503Y-105164210D01*
X101057986Y-105155755D01*
X101047248Y-105161962D01*
X99487022Y-106722188D01*
X99479408Y-106736132D01*
X98749356Y-106736132D01*
X98750592Y-106733868D01*
X98750461Y-106732035D01*
X98746210Y-106725420D01*
X97183855Y-105163065D01*
X97170593Y-105155823D01*
X97160488Y-105163012D01*
X97084495Y-105254871D01*
X97079851Y-105261264D01*
X96915001Y-105521026D01*
X96911189Y-105527959D01*
X96780199Y-105806328D01*
X96777284Y-105813691D01*
X96682217Y-106106277D01*
X96680246Y-106113954D01*
X96622600Y-106416145D01*
X96621607Y-106424006D01*
X96602290Y-106731042D01*
X96602290Y-106738958D01*
X93218000Y-106738958D01*
X93218000Y-104788587D01*
X97533754Y-104788587D01*
X97540658Y-104801448D01*
X99102188Y-106362978D01*
X99116132Y-106370592D01*
X99117965Y-106370461D01*
X99124580Y-106366210D01*
X100689666Y-104801124D01*
X100696279Y-104789013D01*
X100695955Y-104788587D01*
X107583754Y-104788587D01*
X107590658Y-104801448D01*
X109152188Y-106362978D01*
X109166132Y-106370592D01*
X109167965Y-106370461D01*
X109174580Y-106366210D01*
X110739666Y-104801124D01*
X110746279Y-104789013D01*
X110737452Y-104777395D01*
X110514719Y-104615570D01*
X110508039Y-104611330D01*
X110238428Y-104463110D01*
X110231293Y-104459753D01*
X109945230Y-104346492D01*
X109937704Y-104344047D01*
X109639721Y-104267538D01*
X109631950Y-104266055D01*
X109326722Y-104227497D01*
X109318831Y-104227000D01*
X109011169Y-104227000D01*
X109003278Y-104227497D01*
X108698050Y-104266055D01*
X108690279Y-104267538D01*
X108392296Y-104344047D01*
X108384770Y-104346492D01*
X108098707Y-104459753D01*
X108091572Y-104463110D01*
X107821961Y-104611330D01*
X107815281Y-104615570D01*
X107592177Y-104777664D01*
X107583754Y-104788587D01*
X100695955Y-104788587D01*
X100687452Y-104777395D01*
X100464719Y-104615570D01*
X100458039Y-104611330D01*
X100188428Y-104463110D01*
X100181293Y-104459753D01*
X99895230Y-104346492D01*
X99887704Y-104344047D01*
X99589721Y-104267538D01*
X99581950Y-104266055D01*
X99276722Y-104227497D01*
X99268831Y-104227000D01*
X98961169Y-104227000D01*
X98953278Y-104227497D01*
X98648050Y-104266055D01*
X98640279Y-104267538D01*
X98342296Y-104344047D01*
X98334770Y-104346492D01*
X98048707Y-104459753D01*
X98041572Y-104463110D01*
X97771961Y-104611330D01*
X97765281Y-104615570D01*
X97542177Y-104777664D01*
X97533754Y-104788587D01*
X93218000Y-104788587D01*
X93218000Y-99694000D01*
X93238002Y-99625879D01*
X93291658Y-99579386D01*
X93344000Y-99568000D01*
X116279600Y-99568000D01*
X116347721Y-99588002D01*
G37*
%TD.AperFunction*%
%TD*%
M02*
