%TF.GenerationSoftware,KiCad,Pcbnew,(6.0.1)*%
%TF.CreationDate,2022-07-04T14:29:07+02:00*%
%TF.ProjectId,amr_audio_card,616d725f-6175-4646-996f-5f636172642e,rev?*%
%TF.SameCoordinates,Original*%
%TF.FileFunction,Legend,Top*%
%TF.FilePolarity,Positive*%
%FSLAX46Y46*%
G04 Gerber Fmt 4.6, Leading zero omitted, Abs format (unit mm)*
G04 Created by KiCad (PCBNEW (6.0.1)) date 2022-07-04 14:29:07*
%MOMM*%
%LPD*%
G01*
G04 APERTURE LIST*
%ADD10C,0.150000*%
%ADD11C,0.120000*%
G04 APERTURE END LIST*
D10*
%TO.C,J2*%
X109602380Y-134953333D02*
X110316666Y-134953333D01*
X110459523Y-135000952D01*
X110554761Y-135096190D01*
X110602380Y-135239047D01*
X110602380Y-135334285D01*
X109697619Y-134524761D02*
X109650000Y-134477142D01*
X109602380Y-134381904D01*
X109602380Y-134143809D01*
X109650000Y-134048571D01*
X109697619Y-134000952D01*
X109792857Y-133953333D01*
X109888095Y-133953333D01*
X110030952Y-134000952D01*
X110602380Y-134572380D01*
X110602380Y-133953333D01*
%TO.C,U1*%
X144093095Y-150997380D02*
X144093095Y-151806904D01*
X144140714Y-151902142D01*
X144188333Y-151949761D01*
X144283571Y-151997380D01*
X144474047Y-151997380D01*
X144569285Y-151949761D01*
X144616904Y-151902142D01*
X144664523Y-151806904D01*
X144664523Y-150997380D01*
X145664523Y-151997380D02*
X145093095Y-151997380D01*
X145378809Y-151997380D02*
X145378809Y-150997380D01*
X145283571Y-151140238D01*
X145188333Y-151235476D01*
X145093095Y-151283095D01*
%TO.C,J1*%
X111892380Y-112093333D02*
X112606666Y-112093333D01*
X112749523Y-112140952D01*
X112844761Y-112236190D01*
X112892380Y-112379047D01*
X112892380Y-112474285D01*
X112892380Y-111093333D02*
X112892380Y-111664761D01*
X112892380Y-111379047D02*
X111892380Y-111379047D01*
X112035238Y-111474285D01*
X112130476Y-111569523D01*
X112178095Y-111664761D01*
D11*
%TO.C,J2*%
X109340000Y-141280000D02*
X106010000Y-141280000D01*
X94380000Y-127960000D02*
X102490000Y-127960000D01*
X109560000Y-130220000D02*
X109560000Y-132020000D01*
X94380000Y-127960000D02*
X94380000Y-127310000D01*
X109340000Y-127960000D02*
X109340000Y-141280000D01*
X93860000Y-141930000D02*
X94380000Y-141930000D01*
X94380000Y-141930000D02*
X94380000Y-141280000D01*
X94380000Y-127310000D02*
X93860000Y-127310000D01*
X102490000Y-141280000D02*
X94380000Y-141280000D01*
X93860000Y-127310000D02*
X93860000Y-141930000D01*
X109340000Y-127960000D02*
X106010000Y-127960000D01*
%TO.C,J1*%
X98640000Y-108935000D02*
X98640000Y-114585000D01*
X98840000Y-111760000D02*
X99540000Y-112260000D01*
X98840000Y-111760000D02*
X99540000Y-111260000D01*
X101315000Y-117490000D02*
X106965000Y-117490000D01*
X109870000Y-114585000D02*
X109870000Y-108935000D01*
X106965000Y-106030000D02*
X101315000Y-106030000D01*
%TD*%
M02*
