%TF.GenerationSoftware,KiCad,Pcbnew,(6.0.1)*%
%TF.CreationDate,2022-06-28T23:54:25+02:00*%
%TF.ProjectId,amr_audio_card,616d725f-6175-4646-996f-5f636172642e,rev?*%
%TF.SameCoordinates,Original*%
%TF.FileFunction,Copper,L1,Top*%
%TF.FilePolarity,Positive*%
%FSLAX46Y46*%
G04 Gerber Fmt 4.6, Leading zero omitted, Abs format (unit mm)*
G04 Created by KiCad (PCBNEW (6.0.1)) date 2022-06-28 23:54:25*
%MOMM*%
%LPD*%
G01*
G04 APERTURE LIST*
G04 Aperture macros list*
%AMOutline5P*
0 Free polygon, 5 corners , with rotation*
0 The origin of the aperture is its center*
0 number of corners: always 5*
0 $1 to $10 corner X, Y*
0 $11 Rotation angle, in degrees counterclockwise*
0 create outline with 5 corners*
4,1,5,$1,$2,$3,$4,$5,$6,$7,$8,$9,$10,$1,$2,$11*%
%AMOutline6P*
0 Free polygon, 6 corners , with rotation*
0 The origin of the aperture is its center*
0 number of corners: always 6*
0 $1 to $12 corner X, Y*
0 $13 Rotation angle, in degrees counterclockwise*
0 create outline with 6 corners*
4,1,6,$1,$2,$3,$4,$5,$6,$7,$8,$9,$10,$11,$12,$1,$2,$13*%
%AMOutline7P*
0 Free polygon, 7 corners , with rotation*
0 The origin of the aperture is its center*
0 number of corners: always 7*
0 $1 to $14 corner X, Y*
0 $15 Rotation angle, in degrees counterclockwise*
0 create outline with 7 corners*
4,1,7,$1,$2,$3,$4,$5,$6,$7,$8,$9,$10,$11,$12,$13,$14,$1,$2,$15*%
%AMOutline8P*
0 Free polygon, 8 corners , with rotation*
0 The origin of the aperture is its center*
0 number of corners: always 8*
0 $1 to $16 corner X, Y*
0 $17 Rotation angle, in degrees counterclockwise*
0 create outline with 8 corners*
4,1,8,$1,$2,$3,$4,$5,$6,$7,$8,$9,$10,$11,$12,$13,$14,$15,$16,$1,$2,$17*%
G04 Aperture macros list end*
%TA.AperFunction,ConnectorPad*%
%ADD10Outline6P,-0.457200X3.175000X0.457200X3.175000X0.457200X-2.992120X0.274320X-3.175000X-0.274320X-3.175000X-0.457200X-2.992120X0.000000*%
%TD*%
%TA.AperFunction,ComponentPad*%
%ADD11R,1.500000X1.600000*%
%TD*%
%TA.AperFunction,ComponentPad*%
%ADD12C,1.600000*%
%TD*%
%TA.AperFunction,ComponentPad*%
%ADD13C,3.000000*%
%TD*%
%TA.AperFunction,ComponentPad*%
%ADD14R,3.500000X3.500000*%
%TD*%
%TA.AperFunction,ComponentPad*%
%ADD15C,4.000000*%
%TD*%
%TA.AperFunction,Conductor*%
%ADD16C,0.250000*%
%TD*%
G04 APERTURE END LIST*
D10*
%TO.P,U1,A1,AUDIO_PWRDN*%
%TO.N,unconnected-(U1-PadA1)*%
X130250000Y-157895000D03*
%TO.P,U1,A2,MONO_PHONE*%
%TO.N,unconnected-(U1-PadA2)*%
X131520000Y-157895000D03*
%TO.P,U1,A3,RESERVED*%
%TO.N,unconnected-(U1-PadA3)*%
X132790000Y-157895000D03*
%TO.P,U1,A4,RESERVED*%
%TO.N,unconnected-(U1-PadA4)*%
X134060000Y-157895000D03*
%TO.P,U1,A5,RESERVED*%
%TO.N,unconnected-(U1-PadA5)*%
X135330000Y-157895000D03*
%TO.P,U1,A6,GND*%
%TO.N,GND*%
X136600000Y-157895000D03*
%TO.P,U1,A7,+5Vdual/+5VSB*%
%TO.N,Net-(J2-Pad1)*%
X137870000Y-157895000D03*
%TO.P,U1,A8,USB_OC#*%
%TO.N,unconnected-(U1-PadA8)*%
X139140000Y-157895000D03*
%TO.P,U1,A9,GND*%
%TO.N,GND*%
X140410000Y-157895000D03*
%TO.P,U1,A10,USB+*%
%TO.N,Net-(J2-Pad3)*%
X141680000Y-157895000D03*
%TO.P,U1,A11,USB-*%
%TO.N,Net-(J2-Pad2)*%
X142950000Y-157895000D03*
%TO.P,U1,A12,GND*%
%TO.N,GND*%
X146633000Y-157895000D03*
%TO.P,U1,A13,S/P-DIF_IN*%
%TO.N,Net-(J1-Pad1)*%
X147903000Y-157895000D03*
%TO.P,U1,A14,GND*%
%TO.N,GND*%
X149173000Y-157895000D03*
%TO.P,U1,A15,+3.3Vdual/+3.3VSB*%
%TO.N,unconnected-(U1-PadA15)*%
X150443000Y-157895000D03*
%TO.P,U1,A16,GND*%
%TO.N,GND*%
X151713000Y-157895000D03*
%TO.P,U1,A17,AC97_SYNC*%
%TO.N,unconnected-(U1-PadA17)*%
X152983000Y-157895000D03*
%TO.P,U1,A18,GND*%
%TO.N,GND*%
X154253000Y-157895000D03*
%TO.P,U1,A19,AC97_SDATA_IN1*%
%TO.N,unconnected-(U1-PadA19)*%
X155523000Y-157895000D03*
%TO.P,U1,A20,GND*%
%TO.N,GND*%
X156793000Y-157895000D03*
%TO.P,U1,A21,AC97_SDATA_IN0*%
%TO.N,unconnected-(U1-PadA21)*%
X158063000Y-157895000D03*
%TO.P,U1,A22,GND*%
%TO.N,GND*%
X159333000Y-157895000D03*
%TO.P,U1,A23,AC97_BITCLK*%
%TO.N,unconnected-(U1-PadA23)*%
X160603000Y-157895000D03*
%TD*%
D11*
%TO.P,J2,1,VBUS*%
%TO.N,Net-(J2-Pad1)*%
X106960000Y-131120000D03*
D12*
%TO.P,J2,2,D-*%
%TO.N,Net-(J2-Pad2)*%
X106960000Y-133620000D03*
%TO.P,J2,3,D+*%
%TO.N,Net-(J2-Pad3)*%
X106960000Y-135620000D03*
%TO.P,J2,4,GND*%
%TO.N,GND*%
X106960000Y-138120000D03*
D13*
%TO.P,J2,5,Shield*%
X104250000Y-141190000D03*
X104250000Y-128050000D03*
%TD*%
D14*
%TO.P,J1,1,In*%
%TO.N,Net-(J1-Pad1)*%
X104140000Y-111760000D03*
D15*
%TO.P,J1,2,Ext*%
%TO.N,GND*%
X109165000Y-116785000D03*
X109165000Y-106735000D03*
X99115000Y-106735000D03*
X99115000Y-116785000D03*
%TD*%
D16*
%TO.N,GND*%
X99094000Y-128050000D02*
X104250000Y-128050000D01*
X99060000Y-128016000D02*
X99094000Y-128050000D01*
X96266000Y-147574000D02*
X96266000Y-130810000D01*
X99314000Y-150622000D02*
X96266000Y-147574000D01*
X134112000Y-150622000D02*
X99314000Y-150622000D01*
X136600000Y-153110000D02*
X134112000Y-150622000D01*
X136600000Y-157895000D02*
X136600000Y-153110000D01*
X96266000Y-130810000D02*
X99060000Y-128016000D01*
X130500000Y-138120000D02*
X106960000Y-138120000D01*
X140410000Y-148030000D02*
X130500000Y-138120000D01*
X140410000Y-157895000D02*
X140410000Y-148030000D01*
X123389000Y-116785000D02*
X109165000Y-116785000D01*
X146633000Y-140029000D02*
X123389000Y-116785000D01*
X146633000Y-157895000D02*
X146633000Y-140029000D01*
X149173000Y-109549000D02*
X148717000Y-109093000D01*
X149173000Y-157895000D02*
X149173000Y-109549000D01*
X148717000Y-109093000D02*
X151638000Y-112014000D01*
X146359000Y-106735000D02*
X148717000Y-109093000D01*
X151713000Y-112089000D02*
X151638000Y-112014000D01*
X151713000Y-157895000D02*
X151713000Y-112089000D01*
X151638000Y-112014000D02*
X154178000Y-114554000D01*
X154253000Y-157895000D02*
X154253000Y-114629000D01*
X154178000Y-114554000D02*
X156845000Y-117221000D01*
X154253000Y-114629000D02*
X154178000Y-114554000D01*
X156793000Y-157895000D02*
X156793000Y-117273000D01*
X156793000Y-117273000D02*
X156845000Y-117221000D01*
X156845000Y-117221000D02*
X159333000Y-119709000D01*
X159333000Y-119709000D02*
X159333000Y-157895000D01*
X109165000Y-106735000D02*
X146359000Y-106735000D01*
%TO.N,Net-(J2-Pad1)*%
X137870000Y-150824000D02*
X137870000Y-157895000D01*
X135128000Y-148082000D02*
X137870000Y-150824000D01*
X101854000Y-148082000D02*
X135128000Y-148082000D01*
X100584000Y-146812000D02*
X101854000Y-148082000D01*
X100584000Y-135382000D02*
X100584000Y-146812000D01*
X104846000Y-131120000D02*
X100584000Y-135382000D01*
X106960000Y-131120000D02*
X104846000Y-131120000D01*
%TO.N,Net-(J2-Pad3)*%
X141732000Y-144526000D02*
X141680000Y-144578000D01*
X141680000Y-144578000D02*
X141680000Y-157895000D01*
X132826000Y-135620000D02*
X141732000Y-144526000D01*
X106960000Y-135620000D02*
X132826000Y-135620000D01*
%TO.N,Net-(J2-Pad2)*%
X142950000Y-143562000D02*
X142950000Y-157895000D01*
X133112000Y-133620000D02*
X143002000Y-143510000D01*
X106960000Y-133620000D02*
X133112000Y-133620000D01*
X143002000Y-143510000D02*
X142950000Y-143562000D01*
%TO.N,Net-(J1-Pad1)*%
X147903000Y-125297000D02*
X134366000Y-111760000D01*
X147903000Y-157895000D02*
X147903000Y-125297000D01*
X134366000Y-111760000D02*
X104140000Y-111760000D01*
%TD*%
%TA.AperFunction,Conductor*%
%TO.N,GND*%
G36*
X160978121Y-99588002D02*
G01*
X161024614Y-99641658D01*
X161036000Y-99694000D01*
X161036000Y-153543520D01*
X161015998Y-153611641D01*
X160962342Y-153658134D01*
X160909521Y-153669519D01*
X148662021Y-153622951D01*
X148593977Y-153602690D01*
X148547688Y-153548858D01*
X148536500Y-153496952D01*
X148536500Y-125375767D01*
X148537027Y-125364584D01*
X148538702Y-125357091D01*
X148536562Y-125289014D01*
X148536500Y-125285055D01*
X148536500Y-125257144D01*
X148535995Y-125253144D01*
X148535062Y-125241301D01*
X148533922Y-125205030D01*
X148533673Y-125197111D01*
X148528021Y-125177657D01*
X148524013Y-125158300D01*
X148522468Y-125146070D01*
X148522468Y-125146069D01*
X148521474Y-125138203D01*
X148518555Y-125130830D01*
X148505196Y-125097088D01*
X148501351Y-125085858D01*
X148491229Y-125051017D01*
X148491229Y-125051016D01*
X148489018Y-125043407D01*
X148484985Y-125036588D01*
X148484983Y-125036583D01*
X148478707Y-125025972D01*
X148470012Y-125008224D01*
X148462552Y-124989383D01*
X148436564Y-124953613D01*
X148430048Y-124943693D01*
X148411580Y-124912465D01*
X148411578Y-124912462D01*
X148407542Y-124905638D01*
X148393221Y-124891317D01*
X148380380Y-124876283D01*
X148373131Y-124866306D01*
X148368472Y-124859893D01*
X148334395Y-124831702D01*
X148325616Y-124823712D01*
X134869652Y-111367747D01*
X134862112Y-111359461D01*
X134858000Y-111352982D01*
X134808348Y-111306356D01*
X134805507Y-111303602D01*
X134785770Y-111283865D01*
X134782573Y-111281385D01*
X134773551Y-111273680D01*
X134747100Y-111248841D01*
X134741321Y-111243414D01*
X134734375Y-111239595D01*
X134734372Y-111239593D01*
X134723566Y-111233652D01*
X134707047Y-111222801D01*
X134706583Y-111222441D01*
X134691041Y-111210386D01*
X134683772Y-111207241D01*
X134683768Y-111207238D01*
X134650463Y-111192826D01*
X134639813Y-111187609D01*
X134601060Y-111166305D01*
X134581437Y-111161267D01*
X134562734Y-111154863D01*
X134551420Y-111149967D01*
X134551419Y-111149967D01*
X134544145Y-111146819D01*
X134536322Y-111145580D01*
X134536312Y-111145577D01*
X134500476Y-111139901D01*
X134488856Y-111137495D01*
X134453711Y-111128472D01*
X134453710Y-111128472D01*
X134446030Y-111126500D01*
X134425776Y-111126500D01*
X134406065Y-111124949D01*
X134393886Y-111123020D01*
X134386057Y-111121780D01*
X134378165Y-111122526D01*
X134342039Y-111125941D01*
X134330181Y-111126500D01*
X106524500Y-111126500D01*
X106456379Y-111106498D01*
X106409886Y-111052842D01*
X106398500Y-111000500D01*
X106398500Y-109961866D01*
X106391745Y-109899684D01*
X106340615Y-109763295D01*
X106253261Y-109646739D01*
X106136705Y-109559385D01*
X106000316Y-109508255D01*
X105938134Y-109501500D01*
X102341866Y-109501500D01*
X102279684Y-109508255D01*
X102143295Y-109559385D01*
X102026739Y-109646739D01*
X101939385Y-109763295D01*
X101888255Y-109899684D01*
X101881500Y-109961866D01*
X101881500Y-113558134D01*
X101888255Y-113620316D01*
X101939385Y-113756705D01*
X102026739Y-113873261D01*
X102143295Y-113960615D01*
X102279684Y-114011745D01*
X102341866Y-114018500D01*
X105938134Y-114018500D01*
X106000316Y-114011745D01*
X106136705Y-113960615D01*
X106253261Y-113873261D01*
X106340615Y-113756705D01*
X106391745Y-113620316D01*
X106398500Y-113558134D01*
X106398500Y-112519500D01*
X106418502Y-112451379D01*
X106472158Y-112404886D01*
X106524500Y-112393500D01*
X134051406Y-112393500D01*
X134119527Y-112413502D01*
X134140501Y-112430405D01*
X147232595Y-125522500D01*
X147266621Y-125584812D01*
X147269500Y-125611595D01*
X147269500Y-153491176D01*
X147249498Y-153559297D01*
X147195842Y-153605790D01*
X147143021Y-153617175D01*
X146651005Y-153615305D01*
X146273596Y-153613870D01*
X146205553Y-153593609D01*
X146157667Y-153536089D01*
X146151479Y-153521148D01*
X146125684Y-153458874D01*
X146111434Y-153424471D01*
X146111432Y-153424467D01*
X146109539Y-153419897D01*
X145989423Y-153223885D01*
X145986211Y-153220125D01*
X145986208Y-153220120D01*
X145843336Y-153052839D01*
X145840123Y-153049077D01*
X145704890Y-152933577D01*
X145669080Y-152902992D01*
X145669075Y-152902989D01*
X145665315Y-152899777D01*
X145469303Y-152779661D01*
X145464733Y-152777768D01*
X145464729Y-152777766D01*
X145261488Y-152693581D01*
X145261486Y-152693580D01*
X145256915Y-152691687D01*
X145179499Y-152673101D01*
X145038192Y-152639176D01*
X145038186Y-152639175D01*
X145033379Y-152638021D01*
X144804200Y-152619984D01*
X144575021Y-152638021D01*
X144570214Y-152639175D01*
X144570208Y-152639176D01*
X144428901Y-152673101D01*
X144351485Y-152691687D01*
X144346914Y-152693580D01*
X144346912Y-152693581D01*
X144143671Y-152777766D01*
X144143667Y-152777768D01*
X144139097Y-152779661D01*
X143943085Y-152899777D01*
X143939325Y-152902989D01*
X143939320Y-152902992D01*
X143791330Y-153029388D01*
X143726541Y-153058419D01*
X143656341Y-153047814D01*
X143603018Y-153000939D01*
X143583500Y-152933577D01*
X143583500Y-143794395D01*
X143597234Y-143737190D01*
X143599187Y-143733358D01*
X143599188Y-143733356D01*
X143602785Y-143726296D01*
X143604583Y-143718251D01*
X143611909Y-143695706D01*
X143612032Y-143695421D01*
X143615181Y-143688145D01*
X143623967Y-143632674D01*
X143625451Y-143624899D01*
X143635971Y-143577834D01*
X143637702Y-143570091D01*
X143637443Y-143561856D01*
X143638933Y-143538185D01*
X143638980Y-143537889D01*
X143638980Y-143537886D01*
X143640220Y-143530057D01*
X143634935Y-143474143D01*
X143634438Y-143466246D01*
X143632922Y-143418036D01*
X143632673Y-143410110D01*
X143630375Y-143402201D01*
X143625932Y-143378907D01*
X143625903Y-143378598D01*
X143625903Y-143378597D01*
X143625157Y-143370708D01*
X143606128Y-143317852D01*
X143603688Y-143310342D01*
X143590230Y-143264019D01*
X143590229Y-143264016D01*
X143588018Y-143256407D01*
X143583984Y-143249587D01*
X143583981Y-143249579D01*
X143583823Y-143249312D01*
X143573733Y-143227868D01*
X143573628Y-143227577D01*
X143573624Y-143227569D01*
X143570939Y-143220111D01*
X143539354Y-143173635D01*
X143535145Y-143167004D01*
X143506542Y-143118638D01*
X143500722Y-143112818D01*
X143485606Y-143094547D01*
X143485431Y-143094290D01*
X143480972Y-143087729D01*
X143438837Y-143050582D01*
X143433067Y-143045163D01*
X133615652Y-133227747D01*
X133608112Y-133219461D01*
X133604000Y-133212982D01*
X133554348Y-133166356D01*
X133551507Y-133163602D01*
X133531770Y-133143865D01*
X133528573Y-133141385D01*
X133519551Y-133133680D01*
X133493100Y-133108841D01*
X133487321Y-133103414D01*
X133480375Y-133099595D01*
X133480372Y-133099593D01*
X133469566Y-133093652D01*
X133453047Y-133082801D01*
X133452583Y-133082441D01*
X133437041Y-133070386D01*
X133429772Y-133067241D01*
X133429768Y-133067238D01*
X133396463Y-133052826D01*
X133385813Y-133047609D01*
X133347060Y-133026305D01*
X133327437Y-133021267D01*
X133308734Y-133014863D01*
X133297420Y-133009967D01*
X133297419Y-133009967D01*
X133290145Y-133006819D01*
X133282322Y-133005580D01*
X133282312Y-133005577D01*
X133246476Y-132999901D01*
X133234856Y-132997495D01*
X133199711Y-132988472D01*
X133199710Y-132988472D01*
X133192030Y-132986500D01*
X133171776Y-132986500D01*
X133152065Y-132984949D01*
X133139886Y-132983020D01*
X133132057Y-132981780D01*
X133124165Y-132982526D01*
X133088039Y-132985941D01*
X133076181Y-132986500D01*
X108179394Y-132986500D01*
X108111273Y-132966498D01*
X108076181Y-132932771D01*
X107969357Y-132780211D01*
X107969355Y-132780208D01*
X107966198Y-132775700D01*
X107807358Y-132616860D01*
X107773332Y-132554548D01*
X107778397Y-132483733D01*
X107820944Y-132426897D01*
X107852223Y-132409784D01*
X107898638Y-132392383D01*
X107948295Y-132373768D01*
X107948296Y-132373767D01*
X107956705Y-132370615D01*
X108073261Y-132283261D01*
X108160615Y-132166705D01*
X108211745Y-132030316D01*
X108218500Y-131968134D01*
X108218500Y-130271866D01*
X108211745Y-130209684D01*
X108160615Y-130073295D01*
X108073261Y-129956739D01*
X107956705Y-129869385D01*
X107820316Y-129818255D01*
X107758134Y-129811500D01*
X106161866Y-129811500D01*
X106099684Y-129818255D01*
X105963295Y-129869385D01*
X105846739Y-129956739D01*
X105759385Y-130073295D01*
X105708255Y-130209684D01*
X105701500Y-130271866D01*
X105701500Y-130360500D01*
X105681498Y-130428621D01*
X105627842Y-130475114D01*
X105575500Y-130486500D01*
X104924767Y-130486500D01*
X104913584Y-130485973D01*
X104906091Y-130484298D01*
X104898165Y-130484547D01*
X104898164Y-130484547D01*
X104838014Y-130486438D01*
X104834055Y-130486500D01*
X104806144Y-130486500D01*
X104802210Y-130486997D01*
X104802209Y-130486997D01*
X104802144Y-130487005D01*
X104790307Y-130487938D01*
X104758490Y-130488938D01*
X104754029Y-130489078D01*
X104746110Y-130489327D01*
X104728454Y-130494456D01*
X104726658Y-130494978D01*
X104707306Y-130498986D01*
X104700235Y-130499880D01*
X104687203Y-130501526D01*
X104679834Y-130504443D01*
X104679832Y-130504444D01*
X104646097Y-130517800D01*
X104634869Y-130521645D01*
X104592407Y-130533982D01*
X104585585Y-130538016D01*
X104585579Y-130538019D01*
X104574968Y-130544294D01*
X104557218Y-130552990D01*
X104545756Y-130557528D01*
X104545751Y-130557531D01*
X104538383Y-130560448D01*
X104531968Y-130565109D01*
X104502625Y-130586427D01*
X104492707Y-130592943D01*
X104474019Y-130603995D01*
X104454637Y-130615458D01*
X104440313Y-130629782D01*
X104425281Y-130642621D01*
X104408893Y-130654528D01*
X104380712Y-130688593D01*
X104372722Y-130697373D01*
X100191747Y-134878348D01*
X100183461Y-134885888D01*
X100176982Y-134890000D01*
X100171557Y-134895777D01*
X100130357Y-134939651D01*
X100127602Y-134942493D01*
X100107865Y-134962230D01*
X100105385Y-134965427D01*
X100097682Y-134974447D01*
X100067414Y-135006679D01*
X100063595Y-135013625D01*
X100063593Y-135013628D01*
X100057652Y-135024434D01*
X100046801Y-135040953D01*
X100034386Y-135056959D01*
X100031241Y-135064228D01*
X100031238Y-135064232D01*
X100016826Y-135097537D01*
X100011609Y-135108187D01*
X99990305Y-135146940D01*
X99988334Y-135154615D01*
X99988334Y-135154616D01*
X99985267Y-135166562D01*
X99978863Y-135185266D01*
X99970819Y-135203855D01*
X99969580Y-135211678D01*
X99969577Y-135211688D01*
X99963901Y-135247524D01*
X99961495Y-135259144D01*
X99950500Y-135301970D01*
X99950500Y-135322224D01*
X99948949Y-135341934D01*
X99945780Y-135361943D01*
X99946526Y-135369835D01*
X99949941Y-135405961D01*
X99950500Y-135417819D01*
X99950500Y-146733233D01*
X99949973Y-146744416D01*
X99948298Y-146751909D01*
X99948547Y-146759835D01*
X99948547Y-146759836D01*
X99950438Y-146819986D01*
X99950500Y-146823945D01*
X99950500Y-146851856D01*
X99950997Y-146855790D01*
X99950997Y-146855791D01*
X99951005Y-146855856D01*
X99951938Y-146867693D01*
X99953327Y-146911889D01*
X99958978Y-146931339D01*
X99962987Y-146950700D01*
X99965526Y-146970797D01*
X99968445Y-146978168D01*
X99968445Y-146978170D01*
X99981804Y-147011912D01*
X99985649Y-147023142D01*
X99997982Y-147065593D01*
X100002015Y-147072412D01*
X100002017Y-147072417D01*
X100008293Y-147083028D01*
X100016988Y-147100776D01*
X100024448Y-147119617D01*
X100029110Y-147126033D01*
X100029110Y-147126034D01*
X100050436Y-147155387D01*
X100056952Y-147165307D01*
X100079458Y-147203362D01*
X100093779Y-147217683D01*
X100106619Y-147232716D01*
X100118528Y-147249107D01*
X100124634Y-147254158D01*
X100152605Y-147277298D01*
X100161384Y-147285288D01*
X101350343Y-148474247D01*
X101357887Y-148482537D01*
X101362000Y-148489018D01*
X101367777Y-148494443D01*
X101411667Y-148535658D01*
X101414509Y-148538413D01*
X101434230Y-148558134D01*
X101437425Y-148560612D01*
X101446447Y-148568318D01*
X101478679Y-148598586D01*
X101485628Y-148602406D01*
X101496432Y-148608346D01*
X101512956Y-148619199D01*
X101528959Y-148631613D01*
X101569543Y-148649176D01*
X101580173Y-148654383D01*
X101618940Y-148675695D01*
X101626617Y-148677666D01*
X101626622Y-148677668D01*
X101638558Y-148680732D01*
X101657266Y-148687137D01*
X101675855Y-148695181D01*
X101683683Y-148696421D01*
X101683690Y-148696423D01*
X101719524Y-148702099D01*
X101731144Y-148704505D01*
X101766289Y-148713528D01*
X101773970Y-148715500D01*
X101794224Y-148715500D01*
X101813934Y-148717051D01*
X101833943Y-148720220D01*
X101841835Y-148719474D01*
X101877961Y-148716059D01*
X101889819Y-148715500D01*
X134813406Y-148715500D01*
X134881527Y-148735502D01*
X134902501Y-148752405D01*
X137199595Y-151049499D01*
X137233621Y-151111811D01*
X137236500Y-151138594D01*
X137236500Y-153453027D01*
X137216498Y-153521148D01*
X137162842Y-153567641D01*
X137110021Y-153579026D01*
X129659825Y-153550698D01*
X129594073Y-153530900D01*
X129591972Y-153529044D01*
X129565234Y-153516490D01*
X129550265Y-153508176D01*
X129525473Y-153492107D01*
X129500909Y-153484761D01*
X129483464Y-153478099D01*
X129460252Y-153467201D01*
X129431070Y-153462657D01*
X129414351Y-153458874D01*
X129394664Y-153452986D01*
X129394661Y-153452985D01*
X129386059Y-153450413D01*
X129377084Y-153450358D01*
X129377083Y-153450358D01*
X129370390Y-153450317D01*
X129351644Y-153450203D01*
X129350872Y-153450170D01*
X129349777Y-153450000D01*
X129318902Y-153450000D01*
X129318132Y-153449998D01*
X129244484Y-153449548D01*
X129244483Y-153449548D01*
X129240548Y-153449524D01*
X129239204Y-153449908D01*
X129237859Y-153450000D01*
X107805102Y-153450000D01*
X107804332Y-153449998D01*
X107803478Y-153449993D01*
X107726748Y-153449524D01*
X107718119Y-153451990D01*
X107718114Y-153451991D01*
X107698352Y-153457639D01*
X107681591Y-153461217D01*
X107652356Y-153465404D01*
X107652191Y-153464249D01*
X107633087Y-153466947D01*
X106923515Y-153464249D01*
X94359521Y-153416477D01*
X94291477Y-153396216D01*
X94245188Y-153342384D01*
X94234000Y-153290478D01*
X94234000Y-129639654D01*
X103025618Y-129639654D01*
X103032673Y-129649627D01*
X103063679Y-129675551D01*
X103070598Y-129680579D01*
X103295272Y-129821515D01*
X103302807Y-129825556D01*
X103544520Y-129934694D01*
X103552551Y-129937680D01*
X103806832Y-130013002D01*
X103815184Y-130014869D01*
X104077340Y-130054984D01*
X104085874Y-130055700D01*
X104351045Y-130059867D01*
X104359596Y-130059418D01*
X104622883Y-130027557D01*
X104631284Y-130025955D01*
X104887824Y-129958653D01*
X104895926Y-129955926D01*
X105140949Y-129854434D01*
X105148617Y-129850628D01*
X105377598Y-129716822D01*
X105384679Y-129712009D01*
X105464655Y-129649301D01*
X105473125Y-129637442D01*
X105466608Y-129625818D01*
X104262812Y-128422022D01*
X104248868Y-128414408D01*
X104247035Y-128414539D01*
X104240420Y-128418790D01*
X103032910Y-129626300D01*
X103025618Y-129639654D01*
X94234000Y-129639654D01*
X94234000Y-128033204D01*
X102237665Y-128033204D01*
X102252932Y-128297969D01*
X102254005Y-128306470D01*
X102305065Y-128566722D01*
X102307276Y-128574974D01*
X102393184Y-128825894D01*
X102396499Y-128833779D01*
X102515664Y-129070713D01*
X102520020Y-129078079D01*
X102649347Y-129266250D01*
X102659601Y-129274594D01*
X102673342Y-129267448D01*
X103877978Y-128062812D01*
X103884356Y-128051132D01*
X104614408Y-128051132D01*
X104614539Y-128052965D01*
X104618790Y-128059580D01*
X105825730Y-129266520D01*
X105837939Y-129273187D01*
X105849439Y-129264497D01*
X105946831Y-129131913D01*
X105951418Y-129124685D01*
X106077962Y-128891621D01*
X106081530Y-128883827D01*
X106175271Y-128635750D01*
X106177748Y-128627544D01*
X106236954Y-128369038D01*
X106238294Y-128360577D01*
X106262031Y-128094616D01*
X106262277Y-128089677D01*
X106262666Y-128052485D01*
X106262523Y-128047519D01*
X106244362Y-127781123D01*
X106243201Y-127772649D01*
X106189419Y-127512944D01*
X106187120Y-127504709D01*
X106098588Y-127254705D01*
X106095191Y-127246854D01*
X105973550Y-127011178D01*
X105969122Y-127003866D01*
X105850031Y-126834417D01*
X105839509Y-126826037D01*
X105826121Y-126833089D01*
X104622022Y-128037188D01*
X104614408Y-128051132D01*
X103884356Y-128051132D01*
X103885592Y-128048868D01*
X103885461Y-128047035D01*
X103881210Y-128040420D01*
X102673814Y-126833024D01*
X102661804Y-126826466D01*
X102650064Y-126835434D01*
X102541935Y-126985911D01*
X102537418Y-126993196D01*
X102413325Y-127227567D01*
X102409839Y-127235395D01*
X102318700Y-127484446D01*
X102316311Y-127492670D01*
X102259812Y-127751795D01*
X102258563Y-127760250D01*
X102237754Y-128024653D01*
X102237665Y-128033204D01*
X94234000Y-128033204D01*
X94234000Y-126462500D01*
X103026584Y-126462500D01*
X103032980Y-126473770D01*
X104237188Y-127677978D01*
X104251132Y-127685592D01*
X104252965Y-127685461D01*
X104259580Y-127681210D01*
X105466604Y-126474186D01*
X105473795Y-126461017D01*
X105466473Y-126450780D01*
X105419233Y-126412115D01*
X105412261Y-126407160D01*
X105186122Y-126268582D01*
X105178552Y-126264624D01*
X104935704Y-126158022D01*
X104927644Y-126155120D01*
X104672592Y-126082467D01*
X104664214Y-126080685D01*
X104401656Y-126043318D01*
X104393111Y-126042691D01*
X104127908Y-126041302D01*
X104119374Y-126041839D01*
X103856433Y-126076456D01*
X103848035Y-126078149D01*
X103592238Y-126148127D01*
X103584143Y-126150946D01*
X103340199Y-126254997D01*
X103332577Y-126258881D01*
X103105013Y-126395075D01*
X103097981Y-126399962D01*
X103035053Y-126450377D01*
X103026584Y-126462500D01*
X94234000Y-126462500D01*
X94234000Y-118730987D01*
X97533721Y-118730987D01*
X97542548Y-118742605D01*
X97765281Y-118904430D01*
X97771961Y-118908670D01*
X98041572Y-119056890D01*
X98048707Y-119060247D01*
X98334770Y-119173508D01*
X98342296Y-119175953D01*
X98640279Y-119252462D01*
X98648050Y-119253945D01*
X98953278Y-119292503D01*
X98961169Y-119293000D01*
X99268831Y-119293000D01*
X99276722Y-119292503D01*
X99581950Y-119253945D01*
X99589721Y-119252462D01*
X99887704Y-119175953D01*
X99895230Y-119173508D01*
X100181293Y-119060247D01*
X100188428Y-119056890D01*
X100458039Y-118908670D01*
X100464719Y-118904430D01*
X100687823Y-118742336D01*
X100696246Y-118731413D01*
X100696017Y-118730987D01*
X107583721Y-118730987D01*
X107592548Y-118742605D01*
X107815281Y-118904430D01*
X107821961Y-118908670D01*
X108091572Y-119056890D01*
X108098707Y-119060247D01*
X108384770Y-119173508D01*
X108392296Y-119175953D01*
X108690279Y-119252462D01*
X108698050Y-119253945D01*
X109003278Y-119292503D01*
X109011169Y-119293000D01*
X109318831Y-119293000D01*
X109326722Y-119292503D01*
X109631950Y-119253945D01*
X109639721Y-119252462D01*
X109937704Y-119175953D01*
X109945230Y-119173508D01*
X110231293Y-119060247D01*
X110238428Y-119056890D01*
X110508039Y-118908670D01*
X110514719Y-118904430D01*
X110737823Y-118742336D01*
X110746246Y-118731413D01*
X110739342Y-118718552D01*
X109177812Y-117157022D01*
X109163868Y-117149408D01*
X109162035Y-117149539D01*
X109155420Y-117153790D01*
X107590334Y-118718876D01*
X107583721Y-118730987D01*
X100696017Y-118730987D01*
X100689342Y-118718552D01*
X99127812Y-117157022D01*
X99113868Y-117149408D01*
X99112035Y-117149539D01*
X99105420Y-117153790D01*
X97540334Y-118718876D01*
X97533721Y-118730987D01*
X94234000Y-118730987D01*
X94234000Y-116788958D01*
X96602290Y-116788958D01*
X96621607Y-117095994D01*
X96622600Y-117103855D01*
X96680246Y-117406046D01*
X96682217Y-117413723D01*
X96777284Y-117706309D01*
X96780199Y-117713672D01*
X96911189Y-117992041D01*
X96915001Y-117998974D01*
X97079851Y-118258736D01*
X97084495Y-118265129D01*
X97159497Y-118355790D01*
X97172014Y-118364245D01*
X97182752Y-118358038D01*
X98742978Y-116797812D01*
X98749356Y-116786132D01*
X99479408Y-116786132D01*
X99479539Y-116787965D01*
X99483790Y-116794580D01*
X101046145Y-118356935D01*
X101059407Y-118364177D01*
X101069512Y-118356988D01*
X101145505Y-118265129D01*
X101150149Y-118258736D01*
X101314999Y-117998974D01*
X101318811Y-117992041D01*
X101449801Y-117713672D01*
X101452716Y-117706309D01*
X101547783Y-117413723D01*
X101549754Y-117406046D01*
X101607400Y-117103855D01*
X101608393Y-117095994D01*
X101627710Y-116788958D01*
X106652290Y-116788958D01*
X106671607Y-117095994D01*
X106672600Y-117103855D01*
X106730246Y-117406046D01*
X106732217Y-117413723D01*
X106827284Y-117706309D01*
X106830199Y-117713672D01*
X106961189Y-117992041D01*
X106965001Y-117998974D01*
X107129851Y-118258736D01*
X107134495Y-118265129D01*
X107209497Y-118355790D01*
X107222014Y-118364245D01*
X107232752Y-118358038D01*
X108792978Y-116797812D01*
X108799356Y-116786132D01*
X109529408Y-116786132D01*
X109529539Y-116787965D01*
X109533790Y-116794580D01*
X111096145Y-118356935D01*
X111109407Y-118364177D01*
X111119512Y-118356988D01*
X111195505Y-118265129D01*
X111200149Y-118258736D01*
X111364999Y-117998974D01*
X111368811Y-117992041D01*
X111499801Y-117713672D01*
X111502716Y-117706309D01*
X111597783Y-117413723D01*
X111599754Y-117406046D01*
X111657400Y-117103855D01*
X111658393Y-117095994D01*
X111677710Y-116788958D01*
X111677710Y-116781042D01*
X111658393Y-116474006D01*
X111657400Y-116466145D01*
X111599754Y-116163954D01*
X111597783Y-116156277D01*
X111502716Y-115863691D01*
X111499801Y-115856328D01*
X111368811Y-115577959D01*
X111364999Y-115571026D01*
X111200149Y-115311264D01*
X111195505Y-115304871D01*
X111120503Y-115214210D01*
X111107986Y-115205755D01*
X111097248Y-115211962D01*
X109537022Y-116772188D01*
X109529408Y-116786132D01*
X108799356Y-116786132D01*
X108800592Y-116783868D01*
X108800461Y-116782035D01*
X108796210Y-116775420D01*
X107233855Y-115213065D01*
X107220593Y-115205823D01*
X107210488Y-115213012D01*
X107134495Y-115304871D01*
X107129851Y-115311264D01*
X106965001Y-115571026D01*
X106961189Y-115577959D01*
X106830199Y-115856328D01*
X106827284Y-115863691D01*
X106732217Y-116156277D01*
X106730246Y-116163954D01*
X106672600Y-116466145D01*
X106671607Y-116474006D01*
X106652290Y-116781042D01*
X106652290Y-116788958D01*
X101627710Y-116788958D01*
X101627710Y-116781042D01*
X101608393Y-116474006D01*
X101607400Y-116466145D01*
X101549754Y-116163954D01*
X101547783Y-116156277D01*
X101452716Y-115863691D01*
X101449801Y-115856328D01*
X101318811Y-115577959D01*
X101314999Y-115571026D01*
X101150149Y-115311264D01*
X101145505Y-115304871D01*
X101070503Y-115214210D01*
X101057986Y-115205755D01*
X101047248Y-115211962D01*
X99487022Y-116772188D01*
X99479408Y-116786132D01*
X98749356Y-116786132D01*
X98750592Y-116783868D01*
X98750461Y-116782035D01*
X98746210Y-116775420D01*
X97183855Y-115213065D01*
X97170593Y-115205823D01*
X97160488Y-115213012D01*
X97084495Y-115304871D01*
X97079851Y-115311264D01*
X96915001Y-115571026D01*
X96911189Y-115577959D01*
X96780199Y-115856328D01*
X96777284Y-115863691D01*
X96682217Y-116156277D01*
X96680246Y-116163954D01*
X96622600Y-116466145D01*
X96621607Y-116474006D01*
X96602290Y-116781042D01*
X96602290Y-116788958D01*
X94234000Y-116788958D01*
X94234000Y-114838587D01*
X97533754Y-114838587D01*
X97540658Y-114851448D01*
X99102188Y-116412978D01*
X99116132Y-116420592D01*
X99117965Y-116420461D01*
X99124580Y-116416210D01*
X100689666Y-114851124D01*
X100696279Y-114839013D01*
X100695955Y-114838587D01*
X107583754Y-114838587D01*
X107590658Y-114851448D01*
X109152188Y-116412978D01*
X109166132Y-116420592D01*
X109167965Y-116420461D01*
X109174580Y-116416210D01*
X110739666Y-114851124D01*
X110746279Y-114839013D01*
X110737452Y-114827395D01*
X110514719Y-114665570D01*
X110508039Y-114661330D01*
X110238428Y-114513110D01*
X110231293Y-114509753D01*
X109945230Y-114396492D01*
X109937704Y-114394047D01*
X109639721Y-114317538D01*
X109631950Y-114316055D01*
X109326722Y-114277497D01*
X109318831Y-114277000D01*
X109011169Y-114277000D01*
X109003278Y-114277497D01*
X108698050Y-114316055D01*
X108690279Y-114317538D01*
X108392296Y-114394047D01*
X108384770Y-114396492D01*
X108098707Y-114509753D01*
X108091572Y-114513110D01*
X107821961Y-114661330D01*
X107815281Y-114665570D01*
X107592177Y-114827664D01*
X107583754Y-114838587D01*
X100695955Y-114838587D01*
X100687452Y-114827395D01*
X100464719Y-114665570D01*
X100458039Y-114661330D01*
X100188428Y-114513110D01*
X100181293Y-114509753D01*
X99895230Y-114396492D01*
X99887704Y-114394047D01*
X99589721Y-114317538D01*
X99581950Y-114316055D01*
X99276722Y-114277497D01*
X99268831Y-114277000D01*
X98961169Y-114277000D01*
X98953278Y-114277497D01*
X98648050Y-114316055D01*
X98640279Y-114317538D01*
X98342296Y-114394047D01*
X98334770Y-114396492D01*
X98048707Y-114509753D01*
X98041572Y-114513110D01*
X97771961Y-114661330D01*
X97765281Y-114665570D01*
X97542177Y-114827664D01*
X97533754Y-114838587D01*
X94234000Y-114838587D01*
X94234000Y-108680987D01*
X97533721Y-108680987D01*
X97542548Y-108692605D01*
X97765281Y-108854430D01*
X97771961Y-108858670D01*
X98041572Y-109006890D01*
X98048707Y-109010247D01*
X98334770Y-109123508D01*
X98342296Y-109125953D01*
X98640279Y-109202462D01*
X98648050Y-109203945D01*
X98953278Y-109242503D01*
X98961169Y-109243000D01*
X99268831Y-109243000D01*
X99276722Y-109242503D01*
X99581950Y-109203945D01*
X99589721Y-109202462D01*
X99887704Y-109125953D01*
X99895230Y-109123508D01*
X100181293Y-109010247D01*
X100188428Y-109006890D01*
X100458039Y-108858670D01*
X100464719Y-108854430D01*
X100687823Y-108692336D01*
X100696246Y-108681413D01*
X100696017Y-108680987D01*
X107583721Y-108680987D01*
X107592548Y-108692605D01*
X107815281Y-108854430D01*
X107821961Y-108858670D01*
X108091572Y-109006890D01*
X108098707Y-109010247D01*
X108384770Y-109123508D01*
X108392296Y-109125953D01*
X108690279Y-109202462D01*
X108698050Y-109203945D01*
X109003278Y-109242503D01*
X109011169Y-109243000D01*
X109318831Y-109243000D01*
X109326722Y-109242503D01*
X109631950Y-109203945D01*
X109639721Y-109202462D01*
X109937704Y-109125953D01*
X109945230Y-109123508D01*
X110231293Y-109010247D01*
X110238428Y-109006890D01*
X110508039Y-108858670D01*
X110514719Y-108854430D01*
X110737823Y-108692336D01*
X110746246Y-108681413D01*
X110739342Y-108668552D01*
X109177812Y-107107022D01*
X109163868Y-107099408D01*
X109162035Y-107099539D01*
X109155420Y-107103790D01*
X107590334Y-108668876D01*
X107583721Y-108680987D01*
X100696017Y-108680987D01*
X100689342Y-108668552D01*
X99127812Y-107107022D01*
X99113868Y-107099408D01*
X99112035Y-107099539D01*
X99105420Y-107103790D01*
X97540334Y-108668876D01*
X97533721Y-108680987D01*
X94234000Y-108680987D01*
X94234000Y-106738958D01*
X96602290Y-106738958D01*
X96621607Y-107045994D01*
X96622600Y-107053855D01*
X96680246Y-107356046D01*
X96682217Y-107363723D01*
X96777284Y-107656309D01*
X96780199Y-107663672D01*
X96911189Y-107942041D01*
X96915001Y-107948974D01*
X97079851Y-108208736D01*
X97084495Y-108215129D01*
X97159497Y-108305790D01*
X97172014Y-108314245D01*
X97182752Y-108308038D01*
X98742978Y-106747812D01*
X98749356Y-106736132D01*
X99479408Y-106736132D01*
X99479539Y-106737965D01*
X99483790Y-106744580D01*
X101046145Y-108306935D01*
X101059407Y-108314177D01*
X101069512Y-108306988D01*
X101145505Y-108215129D01*
X101150149Y-108208736D01*
X101314999Y-107948974D01*
X101318811Y-107942041D01*
X101449801Y-107663672D01*
X101452716Y-107656309D01*
X101547783Y-107363723D01*
X101549754Y-107356046D01*
X101607400Y-107053855D01*
X101608393Y-107045994D01*
X101627710Y-106738958D01*
X106652290Y-106738958D01*
X106671607Y-107045994D01*
X106672600Y-107053855D01*
X106730246Y-107356046D01*
X106732217Y-107363723D01*
X106827284Y-107656309D01*
X106830199Y-107663672D01*
X106961189Y-107942041D01*
X106965001Y-107948974D01*
X107129851Y-108208736D01*
X107134495Y-108215129D01*
X107209497Y-108305790D01*
X107222014Y-108314245D01*
X107232752Y-108308038D01*
X108792978Y-106747812D01*
X108799356Y-106736132D01*
X109529408Y-106736132D01*
X109529539Y-106737965D01*
X109533790Y-106744580D01*
X111096145Y-108306935D01*
X111109407Y-108314177D01*
X111119512Y-108306988D01*
X111195505Y-108215129D01*
X111200149Y-108208736D01*
X111364999Y-107948974D01*
X111368811Y-107942041D01*
X111499801Y-107663672D01*
X111502716Y-107656309D01*
X111597783Y-107363723D01*
X111599754Y-107356046D01*
X111657400Y-107053855D01*
X111658393Y-107045994D01*
X111677710Y-106738958D01*
X111677710Y-106731042D01*
X111658393Y-106424006D01*
X111657400Y-106416145D01*
X111599754Y-106113954D01*
X111597783Y-106106277D01*
X111502716Y-105813691D01*
X111499801Y-105806328D01*
X111368811Y-105527959D01*
X111364999Y-105521026D01*
X111200149Y-105261264D01*
X111195505Y-105254871D01*
X111120503Y-105164210D01*
X111107986Y-105155755D01*
X111097248Y-105161962D01*
X109537022Y-106722188D01*
X109529408Y-106736132D01*
X108799356Y-106736132D01*
X108800592Y-106733868D01*
X108800461Y-106732035D01*
X108796210Y-106725420D01*
X107233855Y-105163065D01*
X107220593Y-105155823D01*
X107210488Y-105163012D01*
X107134495Y-105254871D01*
X107129851Y-105261264D01*
X106965001Y-105521026D01*
X106961189Y-105527959D01*
X106830199Y-105806328D01*
X106827284Y-105813691D01*
X106732217Y-106106277D01*
X106730246Y-106113954D01*
X106672600Y-106416145D01*
X106671607Y-106424006D01*
X106652290Y-106731042D01*
X106652290Y-106738958D01*
X101627710Y-106738958D01*
X101627710Y-106731042D01*
X101608393Y-106424006D01*
X101607400Y-106416145D01*
X101549754Y-106113954D01*
X101547783Y-106106277D01*
X101452716Y-105813691D01*
X101449801Y-105806328D01*
X101318811Y-105527959D01*
X101314999Y-105521026D01*
X101150149Y-105261264D01*
X101145505Y-105254871D01*
X101070503Y-105164210D01*
X101057986Y-105155755D01*
X101047248Y-105161962D01*
X99487022Y-106722188D01*
X99479408Y-106736132D01*
X98749356Y-106736132D01*
X98750592Y-106733868D01*
X98750461Y-106732035D01*
X98746210Y-106725420D01*
X97183855Y-105163065D01*
X97170593Y-105155823D01*
X97160488Y-105163012D01*
X97084495Y-105254871D01*
X97079851Y-105261264D01*
X96915001Y-105521026D01*
X96911189Y-105527959D01*
X96780199Y-105806328D01*
X96777284Y-105813691D01*
X96682217Y-106106277D01*
X96680246Y-106113954D01*
X96622600Y-106416145D01*
X96621607Y-106424006D01*
X96602290Y-106731042D01*
X96602290Y-106738958D01*
X94234000Y-106738958D01*
X94234000Y-104788587D01*
X97533754Y-104788587D01*
X97540658Y-104801448D01*
X99102188Y-106362978D01*
X99116132Y-106370592D01*
X99117965Y-106370461D01*
X99124580Y-106366210D01*
X100689666Y-104801124D01*
X100696279Y-104789013D01*
X100695955Y-104788587D01*
X107583754Y-104788587D01*
X107590658Y-104801448D01*
X109152188Y-106362978D01*
X109166132Y-106370592D01*
X109167965Y-106370461D01*
X109174580Y-106366210D01*
X110739666Y-104801124D01*
X110746279Y-104789013D01*
X110737452Y-104777395D01*
X110514719Y-104615570D01*
X110508039Y-104611330D01*
X110238428Y-104463110D01*
X110231293Y-104459753D01*
X109945230Y-104346492D01*
X109937704Y-104344047D01*
X109639721Y-104267538D01*
X109631950Y-104266055D01*
X109326722Y-104227497D01*
X109318831Y-104227000D01*
X109011169Y-104227000D01*
X109003278Y-104227497D01*
X108698050Y-104266055D01*
X108690279Y-104267538D01*
X108392296Y-104344047D01*
X108384770Y-104346492D01*
X108098707Y-104459753D01*
X108091572Y-104463110D01*
X107821961Y-104611330D01*
X107815281Y-104615570D01*
X107592177Y-104777664D01*
X107583754Y-104788587D01*
X100695955Y-104788587D01*
X100687452Y-104777395D01*
X100464719Y-104615570D01*
X100458039Y-104611330D01*
X100188428Y-104463110D01*
X100181293Y-104459753D01*
X99895230Y-104346492D01*
X99887704Y-104344047D01*
X99589721Y-104267538D01*
X99581950Y-104266055D01*
X99276722Y-104227497D01*
X99268831Y-104227000D01*
X98961169Y-104227000D01*
X98953278Y-104227497D01*
X98648050Y-104266055D01*
X98640279Y-104267538D01*
X98342296Y-104344047D01*
X98334770Y-104346492D01*
X98048707Y-104459753D01*
X98041572Y-104463110D01*
X97771961Y-104611330D01*
X97765281Y-104615570D01*
X97542177Y-104777664D01*
X97533754Y-104788587D01*
X94234000Y-104788587D01*
X94234000Y-99694000D01*
X94254002Y-99625879D01*
X94307658Y-99579386D01*
X94360000Y-99568000D01*
X160910000Y-99568000D01*
X160978121Y-99588002D01*
G37*
%TD.AperFunction*%
%TA.AperFunction,Conductor*%
G36*
X105643621Y-131773502D02*
G01*
X105690114Y-131827158D01*
X105701500Y-131879500D01*
X105701500Y-131968134D01*
X105708255Y-132030316D01*
X105759385Y-132166705D01*
X105846739Y-132283261D01*
X105963295Y-132370615D01*
X105971704Y-132373767D01*
X105971705Y-132373768D01*
X106021362Y-132392383D01*
X106067777Y-132409783D01*
X106124541Y-132452424D01*
X106149241Y-132518985D01*
X106134034Y-132588334D01*
X106112642Y-132616860D01*
X105953802Y-132775700D01*
X105822477Y-132963251D01*
X105820154Y-132968233D01*
X105820151Y-132968238D01*
X105739409Y-133141392D01*
X105725716Y-133170757D01*
X105666457Y-133391913D01*
X105646502Y-133620000D01*
X105666457Y-133848087D01*
X105725716Y-134069243D01*
X105728039Y-134074224D01*
X105728039Y-134074225D01*
X105820151Y-134271762D01*
X105820154Y-134271767D01*
X105822477Y-134276749D01*
X105953802Y-134464300D01*
X106020407Y-134530905D01*
X106054433Y-134593217D01*
X106049368Y-134664032D01*
X106020407Y-134709095D01*
X105953802Y-134775700D01*
X105822477Y-134963251D01*
X105820154Y-134968233D01*
X105820151Y-134968238D01*
X105729052Y-135163602D01*
X105725716Y-135170757D01*
X105724294Y-135176065D01*
X105724293Y-135176067D01*
X105676585Y-135354114D01*
X105666457Y-135391913D01*
X105646502Y-135620000D01*
X105666457Y-135848087D01*
X105725716Y-136069243D01*
X105728039Y-136074224D01*
X105728039Y-136074225D01*
X105820151Y-136271762D01*
X105820154Y-136271767D01*
X105822477Y-136276749D01*
X105953802Y-136464300D01*
X106115700Y-136626198D01*
X106120208Y-136629355D01*
X106120211Y-136629357D01*
X106223876Y-136701944D01*
X106303251Y-136757523D01*
X106308235Y-136759847D01*
X106310528Y-136761171D01*
X106359521Y-136812553D01*
X106372957Y-136882267D01*
X106346571Y-136948178D01*
X106310528Y-136979409D01*
X106298998Y-136986066D01*
X106246952Y-137022509D01*
X106238576Y-137032988D01*
X106245644Y-137046434D01*
X106947188Y-137747978D01*
X106961132Y-137755592D01*
X106962965Y-137755461D01*
X106969580Y-137751210D01*
X107675077Y-137045713D01*
X107681507Y-137033938D01*
X107672211Y-137021923D01*
X107621002Y-136986066D01*
X107609472Y-136979409D01*
X107560479Y-136928027D01*
X107547042Y-136858313D01*
X107573429Y-136792402D01*
X107609472Y-136761171D01*
X107611765Y-136759847D01*
X107616749Y-136757523D01*
X107696124Y-136701944D01*
X107799789Y-136629357D01*
X107799792Y-136629355D01*
X107804300Y-136626198D01*
X107966198Y-136464300D01*
X108076181Y-136307229D01*
X108131638Y-136262901D01*
X108179394Y-136253500D01*
X132511406Y-136253500D01*
X132579527Y-136273502D01*
X132600501Y-136290405D01*
X141009595Y-144699500D01*
X141043621Y-144761812D01*
X141046500Y-144788595D01*
X141046500Y-153467514D01*
X141026498Y-153535635D01*
X140972842Y-153582128D01*
X140920021Y-153593513D01*
X138629021Y-153584802D01*
X138560977Y-153564541D01*
X138514688Y-153510709D01*
X138503500Y-153458803D01*
X138503500Y-150902768D01*
X138504027Y-150891585D01*
X138505702Y-150884092D01*
X138503562Y-150816001D01*
X138503500Y-150812044D01*
X138503500Y-150784144D01*
X138502996Y-150780153D01*
X138502063Y-150768311D01*
X138500923Y-150732036D01*
X138500674Y-150724111D01*
X138495021Y-150704652D01*
X138491012Y-150685293D01*
X138490846Y-150683983D01*
X138488474Y-150665203D01*
X138485558Y-150657837D01*
X138485556Y-150657831D01*
X138472200Y-150624098D01*
X138468355Y-150612868D01*
X138458230Y-150578017D01*
X138458230Y-150578016D01*
X138456019Y-150570407D01*
X138445705Y-150552966D01*
X138437008Y-150535213D01*
X138432472Y-150523758D01*
X138429552Y-150516383D01*
X138403563Y-150480612D01*
X138397047Y-150470692D01*
X138378578Y-150439463D01*
X138374542Y-150432638D01*
X138360221Y-150418317D01*
X138347380Y-150403283D01*
X138340131Y-150393306D01*
X138335472Y-150386893D01*
X138301395Y-150358702D01*
X138292616Y-150350712D01*
X135631652Y-147689747D01*
X135624112Y-147681461D01*
X135620000Y-147674982D01*
X135570348Y-147628356D01*
X135567507Y-147625602D01*
X135547770Y-147605865D01*
X135544573Y-147603385D01*
X135535551Y-147595680D01*
X135509100Y-147570841D01*
X135503321Y-147565414D01*
X135496375Y-147561595D01*
X135496372Y-147561593D01*
X135485566Y-147555652D01*
X135469047Y-147544801D01*
X135468583Y-147544441D01*
X135453041Y-147532386D01*
X135445772Y-147529241D01*
X135445768Y-147529238D01*
X135412463Y-147514826D01*
X135401813Y-147509609D01*
X135363060Y-147488305D01*
X135343437Y-147483267D01*
X135324734Y-147476863D01*
X135313420Y-147471967D01*
X135313419Y-147471967D01*
X135306145Y-147468819D01*
X135298322Y-147467580D01*
X135298312Y-147467577D01*
X135262476Y-147461901D01*
X135250856Y-147459495D01*
X135215711Y-147450472D01*
X135215710Y-147450472D01*
X135208030Y-147448500D01*
X135187776Y-147448500D01*
X135168065Y-147446949D01*
X135155886Y-147445020D01*
X135148057Y-147443780D01*
X135140165Y-147444526D01*
X135104039Y-147447941D01*
X135092181Y-147448500D01*
X102168595Y-147448500D01*
X102100474Y-147428498D01*
X102079500Y-147411595D01*
X101254405Y-146586500D01*
X101220379Y-146524188D01*
X101217500Y-146497405D01*
X101217500Y-142779654D01*
X103025618Y-142779654D01*
X103032673Y-142789627D01*
X103063679Y-142815551D01*
X103070598Y-142820579D01*
X103295272Y-142961515D01*
X103302807Y-142965556D01*
X103544520Y-143074694D01*
X103552551Y-143077680D01*
X103806832Y-143153002D01*
X103815184Y-143154869D01*
X104077340Y-143194984D01*
X104085874Y-143195700D01*
X104351045Y-143199867D01*
X104359596Y-143199418D01*
X104622883Y-143167557D01*
X104631284Y-143165955D01*
X104887824Y-143098653D01*
X104895926Y-143095926D01*
X105140949Y-142994434D01*
X105148617Y-142990628D01*
X105377598Y-142856822D01*
X105384679Y-142852009D01*
X105464655Y-142789301D01*
X105473125Y-142777442D01*
X105466608Y-142765818D01*
X104262812Y-141562022D01*
X104248868Y-141554408D01*
X104247035Y-141554539D01*
X104240420Y-141558790D01*
X103032910Y-142766300D01*
X103025618Y-142779654D01*
X101217500Y-142779654D01*
X101217500Y-141173204D01*
X102237665Y-141173204D01*
X102252932Y-141437969D01*
X102254005Y-141446470D01*
X102305065Y-141706722D01*
X102307276Y-141714974D01*
X102393184Y-141965894D01*
X102396499Y-141973779D01*
X102515664Y-142210713D01*
X102520020Y-142218079D01*
X102649347Y-142406250D01*
X102659601Y-142414594D01*
X102673342Y-142407448D01*
X103877978Y-141202812D01*
X103884356Y-141191132D01*
X104614408Y-141191132D01*
X104614539Y-141192965D01*
X104618790Y-141199580D01*
X105825730Y-142406520D01*
X105837939Y-142413187D01*
X105849439Y-142404497D01*
X105946831Y-142271913D01*
X105951418Y-142264685D01*
X106077962Y-142031621D01*
X106081530Y-142023827D01*
X106175271Y-141775750D01*
X106177748Y-141767544D01*
X106236954Y-141509038D01*
X106238294Y-141500577D01*
X106262031Y-141234616D01*
X106262277Y-141229677D01*
X106262666Y-141192485D01*
X106262523Y-141187519D01*
X106244362Y-140921123D01*
X106243201Y-140912649D01*
X106189419Y-140652944D01*
X106187120Y-140644709D01*
X106098588Y-140394705D01*
X106095191Y-140386854D01*
X105973550Y-140151178D01*
X105969122Y-140143866D01*
X105850031Y-139974417D01*
X105839509Y-139966037D01*
X105826121Y-139973089D01*
X104622022Y-141177188D01*
X104614408Y-141191132D01*
X103884356Y-141191132D01*
X103885592Y-141188868D01*
X103885461Y-141187035D01*
X103881210Y-141180420D01*
X102673814Y-139973024D01*
X102661804Y-139966466D01*
X102650064Y-139975434D01*
X102541935Y-140125911D01*
X102537418Y-140133196D01*
X102413325Y-140367567D01*
X102409839Y-140375395D01*
X102318700Y-140624446D01*
X102316311Y-140632670D01*
X102259812Y-140891795D01*
X102258563Y-140900250D01*
X102237754Y-141164653D01*
X102237665Y-141173204D01*
X101217500Y-141173204D01*
X101217500Y-139602500D01*
X103026584Y-139602500D01*
X103032980Y-139613770D01*
X104237188Y-140817978D01*
X104251132Y-140825592D01*
X104252965Y-140825461D01*
X104259580Y-140821210D01*
X105466604Y-139614186D01*
X105473795Y-139601017D01*
X105466473Y-139590780D01*
X105419233Y-139552115D01*
X105412261Y-139547160D01*
X105186122Y-139408582D01*
X105178552Y-139404624D01*
X104935704Y-139298022D01*
X104927644Y-139295120D01*
X104672592Y-139222467D01*
X104664214Y-139220685D01*
X104561466Y-139206062D01*
X106238493Y-139206062D01*
X106247789Y-139218077D01*
X106298994Y-139253931D01*
X106308489Y-139259414D01*
X106505947Y-139351490D01*
X106516239Y-139355236D01*
X106726688Y-139411625D01*
X106737481Y-139413528D01*
X106954525Y-139432517D01*
X106965475Y-139432517D01*
X107182519Y-139413528D01*
X107193312Y-139411625D01*
X107403761Y-139355236D01*
X107414053Y-139351490D01*
X107611511Y-139259414D01*
X107621006Y-139253931D01*
X107673048Y-139217491D01*
X107681424Y-139207012D01*
X107674356Y-139193566D01*
X106972812Y-138492022D01*
X106958868Y-138484408D01*
X106957035Y-138484539D01*
X106950420Y-138488790D01*
X106244923Y-139194287D01*
X106238493Y-139206062D01*
X104561466Y-139206062D01*
X104401656Y-139183318D01*
X104393111Y-139182691D01*
X104127908Y-139181302D01*
X104119374Y-139181839D01*
X103856433Y-139216456D01*
X103848035Y-139218149D01*
X103592238Y-139288127D01*
X103584143Y-139290946D01*
X103340199Y-139394997D01*
X103332577Y-139398881D01*
X103105013Y-139535075D01*
X103097981Y-139539962D01*
X103035053Y-139590377D01*
X103026584Y-139602500D01*
X101217500Y-139602500D01*
X101217500Y-138125475D01*
X105647483Y-138125475D01*
X105666472Y-138342519D01*
X105668375Y-138353312D01*
X105724764Y-138563761D01*
X105728510Y-138574053D01*
X105820586Y-138771511D01*
X105826069Y-138781006D01*
X105862509Y-138833048D01*
X105872988Y-138841424D01*
X105886434Y-138834356D01*
X106587978Y-138132812D01*
X106594356Y-138121132D01*
X107324408Y-138121132D01*
X107324539Y-138122965D01*
X107328790Y-138129580D01*
X108034287Y-138835077D01*
X108046062Y-138841507D01*
X108058077Y-138832211D01*
X108093931Y-138781006D01*
X108099414Y-138771511D01*
X108191490Y-138574053D01*
X108195236Y-138563761D01*
X108251625Y-138353312D01*
X108253528Y-138342519D01*
X108272517Y-138125475D01*
X108272517Y-138114525D01*
X108253528Y-137897481D01*
X108251625Y-137886688D01*
X108195236Y-137676239D01*
X108191490Y-137665947D01*
X108099414Y-137468489D01*
X108093931Y-137458994D01*
X108057491Y-137406952D01*
X108047012Y-137398576D01*
X108033566Y-137405644D01*
X107332022Y-138107188D01*
X107324408Y-138121132D01*
X106594356Y-138121132D01*
X106595592Y-138118868D01*
X106595461Y-138117035D01*
X106591210Y-138110420D01*
X105885713Y-137404923D01*
X105873938Y-137398493D01*
X105861923Y-137407789D01*
X105826069Y-137458994D01*
X105820586Y-137468489D01*
X105728510Y-137665947D01*
X105724764Y-137676239D01*
X105668375Y-137886688D01*
X105666472Y-137897481D01*
X105647483Y-138114525D01*
X105647483Y-138125475D01*
X101217500Y-138125475D01*
X101217500Y-135696594D01*
X101237502Y-135628473D01*
X101254405Y-135607499D01*
X105071499Y-131790405D01*
X105133811Y-131756379D01*
X105160594Y-131753500D01*
X105575500Y-131753500D01*
X105643621Y-131773502D01*
G37*
%TD.AperFunction*%
%TD*%
M02*
